<?xml version="1.0" encoding="utf-8"?>
<!-- Generator: Adobe Illustrator 27.7.0, SVG Export Plug-In . SVG Version: 6.00 Build 0)  -->
<svg version="1.1" xmlns="http://www.w3.org/2000/svg" xmlns:xlink="http://www.w3.org/1999/xlink" x="0px" y="0px"
	 viewBox="0 0 360 360" style="enable-background:new 0 0 360 360;" xml:space="preserve">
<style type="text/css">
	.st0{fill:#791232;}
	.st1{fill:none;}
	.st2{display:none;}
	.st3{fill:#F3991F;stroke:#F3991F;stroke-width:0.1855;stroke-miterlimit:10;}
	.st4{fill:none;stroke:#F3991F;stroke-width:11.7516;stroke-miterlimit:10;}
</style>
<g id="circle_background">
	<circle class="st0" cx="180" cy="180" r="180"/>
</g>
<g id="paths">
</g>
<g id="_x22_melandri_x22_">
	<line class="st1" x1="54" y1="237.4" x2="54" y2="-122.6"/>
	<line class="st1" x1="258.34" y1="156.28" x2="258.34" y2="296.85"/>
</g>
<g id="_x22_crop_physio..._x22_" class="st2">
</g>
<g id="_x22_lab_x22_">
	<line class="st1" x1="403.84" y1="324.12" x2="43.84" y2="324.12"/>
</g>
<g id="graphic">
	<g>
		<g>
			<g>
				<path class="st3" d="M43.76,249.91l49.45-28.02c3.05-1.73,6.92-0.66,8.65,2.39l0,0c1.73,3.05,0.66,6.92-2.39,8.65l-49.45,28.02
					c-3.05,1.73-6.92,0.66-8.65-2.39h0C39.64,255.51,40.71,251.64,43.76,249.91z"/>
			</g>
			<g>
				<path class="st3" d="M27.06,172.42l56.84,0.46c3.51,0.03,6.33,2.89,6.3,6.4v0c-0.03,3.51-2.89,6.33-6.4,6.3l-56.84-0.46
					c-3.51-0.03-6.33-2.89-6.3-6.4v0C20.69,175.21,23.55,172.39,27.06,172.42z"/>
			</g>
			<g>
				<path class="st3" d="M51.34,96.97l49,28.82c3.02,1.78,4.03,5.67,2.25,8.69l0,0c-1.78,3.02-5.67,4.03-8.69,2.25l-49-28.82
					c-3.02-1.78-4.03-5.67-2.25-8.69l0,0C44.43,96.2,48.32,95.19,51.34,96.97z"/>
			</g>
			<g>
				<path class="st3" d="M110.09,43.76l28.02,49.45c1.73,3.05,0.66,6.92-2.39,8.65l0,0c-3.05,1.73-6.92,0.66-8.65-2.39L99.05,50.02
					c-1.73-3.05-0.66-6.92,2.39-8.65l0,0C104.49,39.64,108.36,40.71,110.09,43.76z"/>
			</g>
			<g>
				<path class="st3" d="M187.58,27.06l-0.46,56.84c-0.03,3.51-2.89,6.33-6.4,6.3h0c-3.51-0.03-6.33-2.89-6.3-6.4l0.46-56.84
					c0.03-3.51,2.89-6.33,6.4-6.3h0C184.79,20.69,187.61,23.55,187.58,27.06z"/>
			</g>
			<g>
				<path class="st3" d="M263.03,51.34l-28.82,49c-1.78,3.02-5.67,4.03-8.69,2.25l0,0c-3.02-1.78-4.03-5.67-2.25-8.69l28.82-49
					c1.78-3.02,5.67-4.03,8.69-2.25v0C263.8,44.43,264.81,48.32,263.03,51.34z"/>
			</g>
			<g>
				<path class="st3" d="M316.24,110.09l-49.45,28.02c-3.05,1.73-6.92,0.66-8.65-2.39v0c-1.73-3.05-0.66-6.92,2.39-8.65l49.45-28.02
					c3.05-1.73,6.92-0.66,8.65,2.39v0C320.36,104.49,319.29,108.36,316.24,110.09z"/>
			</g>
			<g>
				<path class="st3" d="M332.94,187.58l-56.84-0.46c-3.51-0.03-6.33-2.89-6.3-6.4v0c0.03-3.51,2.89-6.33,6.4-6.3l56.84,0.46
					c3.51,0.03,6.33,2.89,6.3,6.4v0C339.31,184.79,336.45,187.61,332.94,187.58z"/>
			</g>
			<g>
				<path class="st3" d="M308.66,263.03l-49-28.82c-3.02-1.78-4.03-5.67-2.25-8.69l0,0c1.78-3.02,5.67-4.03,8.69-2.25l49,28.82
					c3.02,1.78,4.03,5.67,2.25,8.69l0,0C315.57,263.8,311.68,264.81,308.66,263.03z"/>
			</g>
			<g>
				<path class="st3" d="M249.91,316.24l-28.02-49.45c-1.73-3.05-0.66-6.92,2.39-8.65h0c3.05-1.73,6.92-0.66,8.65,2.39l28.02,49.45
					c1.73,3.05,0.66,6.92-2.39,8.65l0,0C255.51,320.36,251.64,319.29,249.91,316.24z"/>
			</g>
			<g>
				<path class="st3" d="M172.42,332.94l0.46-56.84c0.03-3.51,2.89-6.33,6.4-6.3h0c3.51,0.03,6.33,2.89,6.3,6.4l-0.46,56.84
					c-0.03,3.51-2.89,6.33-6.4,6.3h0C175.21,339.31,172.39,336.45,172.42,332.94z"/>
			</g>
			<g>
				<path class="st3" d="M96.97,308.66l28.82-49c1.78-3.02,5.67-4.03,8.69-2.25l0,0c3.02,1.78,4.03,5.67,2.25,8.69l-28.82,49
					c-1.78,3.02-5.67,4.03-8.69,2.25h0C96.2,315.57,95.19,311.68,96.97,308.66z"/>
			</g>
		</g>
		<g>
			<circle class="st4" cx="180" cy="180" r="64.51"/>
		</g>
	</g>
	<g>
	</g>
	<g>
	</g>
	<g>
	</g>
	<g>
	</g>
	<g>
	</g>
	<g>
	</g>
</g>
</svg>
