<?xml version="1.0" encoding="utf-8"?>
<!-- Generator: Adobe Illustrator 27.7.0, SVG Export Plug-In . SVG Version: 6.00 Build 0)  -->
<svg version="1.1" xmlns="http://www.w3.org/2000/svg" xmlns:xlink="http://www.w3.org/1999/xlink" x="0px" y="0px"
	 viewBox="0 0 360 360" style="enable-background:new 0 0 360 360;" xml:space="preserve">
<style type="text/css">
	.st0{fill:#791232;}
	.st1{display:none;}
	.st2{display:inline;fill:#FFFFFF;stroke:#F3991F;stroke-miterlimit:10;}
	.st3{fill:none;}
	.st4{fill:#FFFFFF;}
	.st5{fill:none;stroke:#F3991F;stroke-width:1.2831;stroke-miterlimit:10;}
	.st6{fill:none;stroke:#F3991F;stroke-width:1.1474;stroke-miterlimit:10;}
	.st7{fill:#F3991F;stroke:#F3991F;stroke-width:0.0203;stroke-miterlimit:10;}
</style>
<g id="circle_background">
	<circle class="st0" cx="180" cy="180" r="180"/>
</g>
<g id="paths" class="st1">
	<line class="st2" x1="155.56" y1="218" x2="312.76" y2="218"/>
</g>
<g id="_x22_melandri_x22_">
	<line class="st3" x1="54" y1="237.4" x2="54" y2="-122.6"/>
</g>
<g id="_x22_crop_physio..._x22_" class="st1">
</g>
<g id="_x22_lab_x22_">
	<line class="st3" x1="414" y1="237.4" x2="54" y2="237.4"/>
	<g>
		<path class="st4" d="M57.67,126.95h7.36v3.37c1.26-1.38,2.66-2.42,4.2-3.1c1.54-0.68,3.22-1.02,5.03-1.02
			c1.83,0,3.49,0.45,4.96,1.35c1.47,0.9,2.66,2.21,3.56,3.94c1.17-1.73,2.6-3.04,4.3-3.94c1.7-0.9,3.56-1.35,5.57-1.35
			c2.09,0,3.92,0.48,5.5,1.46c1.58,0.97,2.72,2.24,3.41,3.8s1.04,4.11,1.04,7.63v17.2H95.2V141.4c0-3.33-0.41-5.58-1.24-6.75
			c-0.83-1.18-2.07-1.77-3.72-1.77c-1.26,0-2.39,0.36-3.38,1.08c-1,0.72-1.74,1.71-2.22,2.98c-0.49,1.27-0.73,3.3-0.73,6.11v13.24
			h-7.41v-14.21c0-2.62-0.19-4.52-0.58-5.7c-0.39-1.18-0.97-2.05-1.74-2.63c-0.77-0.57-1.71-0.86-2.81-0.86
			c-1.23,0-2.34,0.36-3.34,1.09s-1.75,1.75-2.24,3.06c-0.5,1.31-0.74,3.38-0.74,6.2v13.05h-7.36V126.95z"/>
		<path class="st4" d="M140.83,143.74h-23.65c0.34,2.09,1.25,3.74,2.74,4.97s3.37,1.85,5.68,1.85c2.75,0,5.11-0.96,7.09-2.88
			l6.2,2.91c-1.55,2.19-3.4,3.81-5.55,4.87c-2.16,1.05-4.72,1.58-7.68,1.58c-4.6,0-8.35-1.45-11.24-4.35
			c-2.89-2.9-4.34-6.54-4.34-10.91c0-4.48,1.44-8.19,4.33-11.15c2.89-2.96,6.5-4.44,10.85-4.44c4.62,0,8.38,1.48,11.27,4.44
			c2.89,2.96,4.34,6.86,4.34,11.71L140.83,143.74z M133.47,137.95c-0.49-1.64-1.44-2.97-2.88-3.99c-1.43-1.02-3.09-1.54-4.98-1.54
			c-2.05,0-3.85,0.58-5.4,1.73c-0.97,0.72-1.87,1.99-2.7,3.8H133.47z"/>
		<path class="st4" d="M147.8,115.62h7.36v40.66h-7.36V115.62z"/>
		<path class="st4" d="M185.32,126.95h7.36v29.33h-7.36v-3.1c-1.44,1.37-2.88,2.35-4.32,2.95c-1.44,0.6-3.01,0.9-4.7,0.9
			c-3.79,0-7.06-1.47-9.83-4.41c-2.76-2.94-4.15-6.59-4.15-10.96c0-4.53,1.34-8.24,4.01-11.13s5.92-4.34,9.75-4.34
			c1.76,0,3.41,0.33,4.96,1c1.54,0.67,2.97,1.66,4.28,2.99V126.95z M177.59,132.98c-2.28,0-4.17,0.8-5.67,2.41
			c-1.5,1.61-2.26,3.67-2.26,6.19c0,2.53,0.77,4.62,2.3,6.25c1.53,1.64,3.42,2.45,5.66,2.45c2.31,0,4.23-0.8,5.75-2.41
			c1.52-1.61,2.28-3.72,2.28-6.32c0-2.55-0.76-4.62-2.28-6.2C181.84,133.78,179.91,132.98,177.59,132.98z"/>
		<path class="st4" d="M201.95,126.95h7.36v3.01c1.67-1.41,3.18-2.39,4.54-2.94c1.36-0.55,2.74-0.83,4.16-0.83
			c2.91,0,5.38,1.02,7.4,3.05c1.71,1.73,2.56,4.28,2.56,7.66v19.39h-7.28v-12.85c0-3.5-0.16-5.83-0.47-6.97
			c-0.31-1.15-0.86-2.02-1.64-2.63c-0.78-0.6-1.74-0.9-2.89-0.9c-1.49,0-2.77,0.5-3.83,1.49c-1.07,1-1.81,2.37-2.22,4.13
			c-0.22,0.92-0.32,2.9-0.32,5.95v11.77h-7.36V126.95z"/>
		<path class="st4" d="M258.56,115.62h7.36v40.66h-7.36v-3.1c-1.44,1.37-2.88,2.35-4.32,2.95c-1.45,0.6-3.01,0.9-4.7,0.9
			c-3.79,0-7.07-1.47-9.83-4.41s-4.15-6.59-4.15-10.96c0-4.53,1.34-8.24,4.01-11.13c2.68-2.89,5.92-4.34,9.75-4.34
			c1.76,0,3.41,0.33,4.96,1s2.97,1.66,4.28,2.99V115.62z M250.82,132.98c-2.27,0-4.17,0.8-5.67,2.41c-1.5,1.61-2.26,3.67-2.26,6.19
			c0,2.53,0.77,4.62,2.3,6.25c1.53,1.64,3.42,2.45,5.66,2.45c2.31,0,4.23-0.8,5.75-2.41c1.52-1.61,2.28-3.72,2.28-6.32
			c0-2.55-0.76-4.62-2.28-6.2C255.07,133.78,253.15,132.98,250.82,132.98z"/>
		<path class="st4" d="M273.45,126.95h6.31v3.69c0.68-1.46,1.59-2.56,2.72-3.32c1.13-0.75,2.37-1.13,3.72-1.13
			c0.95,0,1.95,0.25,2.99,0.75l-2.29,6.34c-0.86-0.43-1.57-0.65-2.13-0.65c-1.13,0-2.09,0.7-2.87,2.1c-0.78,1.4-1.17,4.15-1.17,8.25
			l0.03,1.43v11.86h-7.31V126.95z"/>
		<path class="st4" d="M297.53,114.87c1.29,0,2.4,0.47,3.32,1.4s1.38,2.07,1.38,3.4c0,1.31-0.46,2.43-1.37,3.36
			s-2.01,1.39-3.28,1.39c-1.31,0-2.42-0.47-3.35-1.42c-0.92-0.94-1.38-2.09-1.38-3.44c0-1.29,0.46-2.4,1.37-3.32
			C295.14,115.32,296.24,114.87,297.53,114.87z M293.85,126.95h7.36v29.33h-7.36V126.95z"/>
	</g>
	<g>
		<path class="st4" d="M60.56,191.96h7.36v40.66h-7.36V191.96z"/>
		<path class="st4" d="M98.07,203.28h7.36v29.33h-7.36v-3.1c-1.44,1.37-2.88,2.35-4.32,2.95c-1.45,0.6-3.01,0.9-4.7,0.9
			c-3.79,0-7.06-1.47-9.83-4.41c-2.76-2.94-4.15-6.59-4.15-10.96c0-4.53,1.34-8.24,4.01-11.13s5.92-4.34,9.75-4.34
			c1.76,0,3.41,0.33,4.95,1c1.54,0.67,2.97,1.66,4.28,2.99V203.28z M90.34,209.32c-2.28,0-4.17,0.8-5.67,2.41
			c-1.5,1.61-2.26,3.67-2.26,6.19c0,2.54,0.77,4.62,2.3,6.26s3.42,2.45,5.66,2.45c2.31,0,4.23-0.8,5.75-2.41s2.28-3.72,2.28-6.32
			c0-2.55-0.76-4.62-2.28-6.2S92.67,209.32,90.34,209.32z"/>
		<path class="st4" d="M122.01,191.96v14.56c1.33-1.33,2.77-2.33,4.31-2.99c1.55-0.66,3.2-1,4.96-1c3.83,0,7.08,1.45,9.76,4.34
			s4.02,6.61,4.02,11.13c0,4.37-1.38,8.02-4.15,10.96s-6.05,4.41-9.84,4.41c-1.69,0-3.26-0.3-4.72-0.9c-1.46-0.6-2.9-1.59-4.34-2.95
			v3.1h-7.31v-40.66H122.01z M129.74,209.32c-2.32,0-4.24,0.79-5.77,2.37c-1.53,1.58-2.29,3.65-2.29,6.2c0,2.61,0.76,4.71,2.29,6.32
			c1.53,1.61,3.45,2.41,5.77,2.41c2.25,0,4.14-0.82,5.68-2.45c1.54-1.64,2.31-3.72,2.31-6.26c0-2.52-0.75-4.58-2.26-6.19
			C133.95,210.12,132.04,209.32,129.74,209.32z"/>
	</g>
</g>
<g id="graphic">
	<g>
		<line class="st5" x1="198.16" y1="212.95" x2="270.16" y2="212.95"/>
		<path class="st6" d="M261.12,206.43c-10.71-11.11,0-16.22,0-16.22v-5.18c0-5.1-4.14-9.24-9.24-9.24c-5.1,0-9.24,4.14-9.24,9.24
			v20.41v7.51"/>
		<path class="st6" d="M260.68,190.06c0,0,10.71,5.11,0,16.22"/>
		<line class="st6" x1="235.1" y1="198.17" x2="242.65" y2="205.44"/>
		<line class="st6" x1="242.65" y1="195.42" x2="249.5" y2="188.53"/>
		<polyline class="st6" points="205.26,212.95 211.52,218.17 219.66,218.17 222.16,212.95 230.09,212.95 230.09,218.17 
			223.84,221.3 220.28,222.34 219.87,227.35 216.79,229.85 209.75,227.77 210.21,225.29 211.52,218.17 		"/>
		<line class="st6" x1="210.21" y1="225.29" x2="198.16" y2="227.98"/>
		<line class="st6" x1="219.66" y1="218.17" x2="223.84" y2="221.3"/>
		<polyline class="st6" points="230.09,218.17 236.56,221.3 242.65,219.73 248.67,212.95 256.81,221.3 262.23,219.73 263.9,212.95 
					"/>
		<line class="st6" x1="262.23" y1="219.73" x2="270.16" y2="229.23"/>
		<polyline class="st6" points="256.81,221.3 251.89,222.34 244.91,231.94 239.9,233.19 225.08,232.15 219.87,227.35 		"/>
		<line class="st6" x1="242.65" y1="219.73" x2="249.5" y2="226.63"/>
		<polyline class="st6" points="247,229.07 251.89,230.69 255.55,229.23 262.23,238.41 266.2,237.37 		"/>
		<line class="st6" x1="262.23" y1="238.41" x2="256.81" y2="244.88"/>
		<polyline class="st6" points="251.89,230.69 251.89,236.53 247,241.65 251.89,245.92 		"/>
		<path class="st6" d="M247,241.65"/>
		<polyline class="st6" points="223.84,241.65 216.79,239.87 212.6,238.7 206.09,236.9 209.75,227.77 		"/>
		<line class="st6" x1="212.6" y1="238.7" x2="207.2" y2="244.11"/>
		<polyline class="st6" points="236.56,221.3 235.1,224.48 238.87,227.77 238.87,233.19 238.87,236.74 235.1,241.65 230.09,241.65 
			223.84,241.65 221.75,235.7 225.08,232.15 		"/>
		<line class="st6" x1="247" y1="241.65" x2="236.86" y2="239.36"/>
		<g>
			<g>
				<path class="st7" d="M201.92,190.96l5.4-3.06c0.33-0.19,0.76-0.07,0.94,0.26l0,0c0.19,0.33,0.07,0.76-0.26,0.94l-5.4,3.06
					c-0.33,0.19-0.76,0.07-0.94-0.26l0,0C201.47,191.57,201.58,191.15,201.92,190.96z"/>
			</g>
			<g>
				<path class="st7" d="M200.09,182.5l6.21,0.05c0.38,0,0.69,0.32,0.69,0.7l0,0c0,0.38-0.32,0.69-0.7,0.69l-6.21-0.05
					c-0.38,0-0.69-0.32-0.69-0.7l0,0C199.4,182.81,199.71,182.5,200.09,182.5z"/>
			</g>
			<g>
				<path class="st7" d="M202.75,174.26l5.35,3.15c0.33,0.19,0.44,0.62,0.25,0.95l0,0c-0.19,0.33-0.62,0.44-0.95,0.25l-5.35-3.15
					c-0.33-0.19-0.44-0.62-0.25-0.95l0,0C201.99,174.18,202.42,174.07,202.75,174.26z"/>
			</g>
			<g>
				<path class="st7" d="M209.16,168.45l3.06,5.4c0.19,0.33,0.07,0.76-0.26,0.94l0,0c-0.33,0.19-0.76,0.07-0.94-0.26l-3.06-5.4
					c-0.19-0.33-0.07-0.76,0.26-0.94l0,0C208.55,168,208.97,168.12,209.16,168.45z"/>
			</g>
			<g>
				<path class="st7" d="M217.62,166.63l-0.05,6.21c0,0.38-0.32,0.69-0.7,0.69l0,0c-0.38,0-0.69-0.32-0.69-0.7l0.05-6.21
					c0-0.38,0.32-0.69,0.7-0.69l0,0C217.32,165.94,217.62,166.25,217.62,166.63z"/>
			</g>
			<g>
				<path class="st7" d="M225.86,169.28l-3.15,5.35c-0.19,0.33-0.62,0.44-0.95,0.25l0,0c-0.33-0.19-0.44-0.62-0.25-0.95l3.15-5.35
					c0.19-0.33,0.62-0.44,0.95-0.25l0,0C225.94,168.53,226.05,168.95,225.86,169.28z"/>
			</g>
			<g>
				<path class="st7" d="M231.67,175.7l-5.4,3.06c-0.33,0.19-0.76,0.07-0.94-0.26l0,0c-0.19-0.33-0.07-0.76,0.26-0.94l5.4-3.06
					c0.33-0.19,0.76-0.07,0.94,0.26l0,0C232.12,175.09,232,175.51,231.67,175.7z"/>
			</g>
			<g>
				<path class="st7" d="M233.49,184.16l-6.21-0.05c-0.38,0-0.69-0.32-0.69-0.7l0,0c0-0.38,0.32-0.69,0.7-0.69l6.21,0.05
					c0.38,0,0.69,0.32,0.69,0.7l0,0C234.19,183.85,233.87,184.16,233.49,184.16z"/>
			</g>
			<g>
				<path class="st7" d="M230.84,192.4l-5.35-3.15c-0.33-0.19-0.44-0.62-0.25-0.95l0,0c0.19-0.33,0.62-0.44,0.95-0.25l5.35,3.15
					c0.33,0.19,0.44,0.62,0.25,0.95l0,0C231.6,192.48,231.17,192.59,230.84,192.4z"/>
			</g>
			<g>
				<path class="st7" d="M224.43,198.21l-3.06-5.4c-0.19-0.33-0.07-0.76,0.26-0.94l0,0c0.33-0.19,0.76-0.07,0.94,0.26l3.06,5.4
					c0.19,0.33,0.07,0.76-0.26,0.94l0,0C225.04,198.66,224.61,198.54,224.43,198.21z"/>
			</g>
			<g>
				<path class="st7" d="M215.97,200.03l0.05-6.21c0-0.38,0.32-0.69,0.7-0.69l0,0c0.38,0,0.69,0.32,0.69,0.7l-0.05,6.21
					c0,0.38-0.32,0.69-0.7,0.69l0,0C216.27,200.72,215.96,200.41,215.97,200.03z"/>
			</g>
			<g>
				<path class="st7" d="M207.73,197.38l3.15-5.35c0.19-0.33,0.62-0.44,0.95-0.25l0,0c0.33,0.19,0.44,0.62,0.25,0.95l-3.15,5.35
					c-0.19,0.33-0.62,0.44-0.95,0.25l0,0C207.64,198.13,207.53,197.71,207.73,197.38z"/>
			</g>
		</g>
		<g>
			<circle class="st5" cx="216.79" cy="183.33" r="7.04"/>
		</g>
	</g>
	<g>
	</g>
	<g>
	</g>
	<g>
	</g>
	<g>
	</g>
	<g>
	</g>
	<g>
	</g>
</g>
</svg>
