<?xml version="1.0" encoding="utf-8"?>
<!-- Generator: Adobe Illustrator 27.7.0, SVG Export Plug-In . SVG Version: 6.00 Build 0)  -->
<svg version="1.1" xmlns="http://www.w3.org/2000/svg" xmlns:xlink="http://www.w3.org/1999/xlink" x="0px" y="0px"
	 viewBox="0 0 342 90" style="enable-background:new 0 0 342 90;" xml:space="preserve">
<style type="text/css">
	.st0{fill:#791232;stroke:#FFFFFF;stroke-width:1.0614;stroke-miterlimit:10;}
	.st1{fill:none;}
	.st2{fill:#F3991F;}
	.st3{fill:#FFFFFF;}
	.st4{fill:none;stroke:#F3991F;stroke-width:1.2831;stroke-linecap:round;stroke-linejoin:bevel;stroke-miterlimit:10;}
	.st5{fill:none;stroke:#F3991F;stroke-width:1.1474;stroke-linecap:round;stroke-linejoin:bevel;stroke-miterlimit:10;}
	.st6{fill:none;stroke:#F3991F;stroke-width:1.1474;stroke-linejoin:bevel;stroke-miterlimit:10;}
	.st7{fill:#F3991F;stroke:#F3991F;stroke-width:0.0143;stroke-linejoin:bevel;stroke-miterlimit:10;}
	.st8{fill:none;stroke:#F3991F;stroke-width:0.9066;stroke-linecap:round;stroke-linejoin:bevel;stroke-miterlimit:10;}
	.st9{fill:none;stroke:#F3991F;stroke-width:1.5;stroke-linecap:round;stroke-linejoin:bevel;stroke-miterlimit:10;}
	.st10{fill:#F3991F;stroke:#F3991F;stroke-width:0.1993;stroke-linecap:round;stroke-linejoin:round;stroke-miterlimit:10;}
	.st11{display:none;}
	.st12{display:inline;}
	.st13{fill:none;stroke:#F3991F;stroke-width:1.2831;stroke-miterlimit:10;}
	.st14{fill:none;stroke:#F3991F;stroke-width:1.1474;stroke-miterlimit:10;}
	.st15{fill:#F3991F;stroke:#F3991F;stroke-width:0.0203;stroke-miterlimit:10;}
</style>
<g id="Background">
	<rect x="0.63" y="-1.33" class="st0" width="341.78" height="88.05"/>
	<rect x="-20.04" y="-123.24" class="st0" width="394.1" height="370.5"/>
</g>
<g id="paths">
</g>
<g id="_x22_melandri_x22_">
</g>
<g id="_x22_crop_physio..._x22_">
</g>
<g id="graphic">
</g>
<g id="sorghum">
</g>
<g id="cotton">
</g>
<g id="wheat">
	<g>
		<g>
			<g>
				<polygon class="st1" points="6.41,114.54 255.74,114.54 255.74,25.99 6.4,25.99 				"/>
				<path class="st2" d="M14.63,69.48l-1.55,0.85c-0.29-0.3-0.58-0.52-0.87-0.64c-0.29-0.12-0.62-0.18-1-0.18
					c-0.7,0-1.26,0.21-1.69,0.62c-0.43,0.42-0.65,0.95-0.65,1.6c0,0.63,0.21,1.15,0.62,1.55c0.42,0.4,0.96,0.6,1.64,0.6
					c0.84,0,1.49-0.28,1.95-0.85l1.47,1.01c-0.8,1.04-1.92,1.56-3.38,1.56c-1.31,0-2.33-0.39-3.07-1.16
					c-0.74-0.77-1.11-1.68-1.11-2.72c0-0.72,0.18-1.38,0.54-1.99c0.36-0.61,0.86-1.08,1.51-1.43c0.65-0.35,1.37-0.52,2.16-0.52
					c0.74,0,1.4,0.15,1.99,0.44S14.26,68.94,14.63,69.48z"/>
				<path class="st2" d="M15.87,67.98h1.6v0.94c0.17-0.37,0.4-0.65,0.69-0.84s0.6-0.29,0.94-0.29c0.24,0,0.49,0.06,0.76,0.19
					l-0.58,1.61c-0.22-0.11-0.4-0.16-0.54-0.16c-0.29,0-0.53,0.18-0.73,0.53s-0.3,1.05-0.3,2.09l0.01,0.36v3.01h-1.85V67.98z"/>
				<path class="st2" d="M24.28,67.79c0.7,0,1.36,0.18,1.98,0.53c0.62,0.35,1.1,0.83,1.45,1.43s0.52,1.25,0.52,1.95
					c0,0.7-0.17,1.36-0.52,1.97c-0.35,0.61-0.82,1.09-1.43,1.43c-0.6,0.34-1.26,0.52-1.99,0.52c-1.07,0-1.98-0.38-2.73-1.14
					s-1.13-1.68-1.13-2.77c0-1.16,0.43-2.13,1.28-2.91C22.45,68.13,23.31,67.79,24.28,67.79z M24.31,69.55
					c-0.58,0-1.06,0.2-1.45,0.61s-0.58,0.92-0.58,1.55c0,0.65,0.19,1.17,0.57,1.57c0.38,0.4,0.86,0.6,1.45,0.6s1.07-0.2,1.46-0.61
					c0.39-0.41,0.58-0.93,0.58-1.57c0-0.64-0.19-1.16-0.57-1.55C25.39,69.75,24.91,69.55,24.31,69.55z"/>
				<path class="st2" d="M31.6,67.98v0.82c0.34-0.34,0.7-0.59,1.09-0.76c0.39-0.17,0.81-0.25,1.26-0.25c0.97,0,1.8,0.37,2.47,1.1
					c0.68,0.73,1.02,1.67,1.02,2.82c0,1.11-0.35,2.03-1.05,2.78s-1.53,1.12-2.5,1.12c-0.43,0-0.83-0.08-1.2-0.23
					c-0.37-0.15-0.74-0.4-1.1-0.75v3.51h-1.85V67.98H31.6z M33.56,69.51c-0.59,0-1.08,0.2-1.46,0.6c-0.39,0.4-0.58,0.93-0.58,1.57
					c0,0.66,0.19,1.2,0.58,1.6c0.39,0.41,0.88,0.61,1.46,0.61c0.57,0,1.05-0.21,1.44-0.62c0.39-0.41,0.58-0.94,0.58-1.59
					c0-0.64-0.19-1.16-0.57-1.57C34.63,69.72,34.15,69.51,33.56,69.51z"/>
				<path class="st2" d="M44.45,67.98v0.82c0.34-0.34,0.7-0.59,1.09-0.76c0.39-0.17,0.81-0.25,1.26-0.25c0.97,0,1.8,0.37,2.47,1.1
					c0.68,0.73,1.02,1.67,1.02,2.82c0,1.11-0.35,2.03-1.05,2.78s-1.53,1.12-2.5,1.12c-0.43,0-0.83-0.08-1.2-0.23
					c-0.37-0.15-0.74-0.4-1.1-0.75v3.51H42.6V67.98H44.45z M46.41,69.51c-0.59,0-1.08,0.2-1.46,0.6c-0.39,0.4-0.58,0.93-0.58,1.57
					c0,0.66,0.19,1.2,0.58,1.6c0.39,0.41,0.88,0.61,1.46,0.61c0.57,0,1.05-0.21,1.44-0.62c0.39-0.41,0.58-0.94,0.58-1.59
					c0-0.64-0.19-1.16-0.57-1.57C47.48,69.72,46.99,69.51,46.41,69.51z"/>
				<path class="st2" d="M51.84,65.11h1.85v3.62c0.36-0.31,0.73-0.55,1.1-0.71s0.74-0.24,1.12-0.24c0.74,0,1.36,0.26,1.87,0.77
					c0.43,0.44,0.65,1.09,0.65,1.95v4.92H56.6v-3.26c0-0.86-0.04-1.44-0.12-1.75c-0.08-0.3-0.22-0.53-0.42-0.68
					s-0.44-0.23-0.73-0.23c-0.38,0-0.7,0.13-0.97,0.38c-0.27,0.25-0.46,0.59-0.56,1.03c-0.05,0.22-0.08,0.73-0.08,1.53v2.99h-1.85
					V65.11z"/>
				<path class="st2" d="M59.41,67.98h1.91l1.93,4.67l2.13-4.67h1.91l-4.66,10.16h-1.93l1.53-3.28L59.41,67.98z"/>
				<path class="st2" d="M72.91,69.02l-1.16,1.16c-0.47-0.46-0.9-0.7-1.28-0.7c-0.21,0-0.37,0.04-0.49,0.13s-0.18,0.2-0.18,0.33
					c0,0.1,0.04,0.19,0.11,0.28c0.08,0.08,0.26,0.2,0.56,0.34l0.68,0.34c0.72,0.36,1.21,0.72,1.48,1.09s0.4,0.8,0.4,1.3
					c0,0.66-0.24,1.21-0.73,1.65c-0.49,0.44-1.14,0.66-1.95,0.66c-1.08,0-1.95-0.42-2.6-1.27l1.15-1.25
					c0.22,0.26,0.48,0.46,0.77,0.62s0.55,0.24,0.78,0.24c0.25,0,0.44-0.06,0.59-0.18c0.15-0.12,0.23-0.25,0.23-0.41
					c0-0.29-0.27-0.57-0.81-0.84l-0.63-0.31c-1.2-0.61-1.8-1.36-1.8-2.28c0-0.59,0.23-1.09,0.68-1.51s1.03-0.63,1.74-0.63
					c0.48,0,0.94,0.11,1.36,0.32S72.62,68.62,72.91,69.02z"/>
				<path class="st2" d="M75.25,64.92c0.33,0,0.61,0.12,0.84,0.36c0.23,0.24,0.35,0.52,0.35,0.86c0,0.33-0.12,0.62-0.35,0.85
					c-0.23,0.23-0.51,0.35-0.83,0.35c-0.33,0-0.61-0.12-0.85-0.36s-0.35-0.53-0.35-0.87c0-0.33,0.12-0.61,0.35-0.84
					C74.64,65.03,74.92,64.92,75.25,64.92z M74.31,67.98h1.87v7.44h-1.87V67.98z"/>
				<path class="st2" d="M81.37,67.79c0.7,0,1.36,0.18,1.98,0.53c0.62,0.35,1.1,0.83,1.45,1.43s0.52,1.25,0.52,1.95
					c0,0.7-0.17,1.36-0.52,1.97c-0.35,0.61-0.82,1.09-1.43,1.43c-0.6,0.34-1.26,0.52-1.99,0.52c-1.07,0-1.98-0.38-2.73-1.14
					s-1.13-1.68-1.13-2.77c0-1.16,0.43-2.13,1.28-2.91C79.54,68.13,80.4,67.79,81.37,67.79z M81.4,69.55c-0.58,0-1.06,0.2-1.45,0.61
					s-0.58,0.92-0.58,1.55c0,0.65,0.19,1.17,0.57,1.57c0.38,0.4,0.86,0.6,1.45,0.6s1.07-0.2,1.46-0.61
					c0.39-0.41,0.58-0.93,0.58-1.57c0-0.64-0.19-1.16-0.57-1.55C82.48,69.75,81.99,69.55,81.4,69.55z"/>
				<path class="st2" d="M86.63,65.11h1.87v10.31h-1.87V65.11z"/>
				<path class="st2" d="M93.69,67.79c0.7,0,1.36,0.18,1.98,0.53c0.62,0.35,1.1,0.83,1.45,1.43s0.52,1.25,0.52,1.95
					c0,0.7-0.17,1.36-0.52,1.97c-0.35,0.61-0.82,1.09-1.43,1.43c-0.6,0.34-1.26,0.52-1.99,0.52c-1.07,0-1.98-0.38-2.73-1.14
					s-1.13-1.68-1.13-2.77c0-1.16,0.43-2.13,1.28-2.91C91.86,68.13,92.72,67.79,93.69,67.79z M93.72,69.55
					c-0.58,0-1.06,0.2-1.45,0.61s-0.58,0.92-0.58,1.55c0,0.65,0.19,1.17,0.57,1.57c0.38,0.4,0.86,0.6,1.45,0.6s1.07-0.2,1.46-0.61
					c0.39-0.41,0.58-0.93,0.58-1.57c0-0.64-0.19-1.16-0.57-1.55C94.8,69.75,94.31,69.55,93.72,69.55z"/>
				<path class="st2" d="M104.65,67.98h1.86v6.37c0,1.26-0.25,2.18-0.76,2.78c-0.68,0.8-1.7,1.2-3.07,1.2
					c-0.73,0-1.34-0.09-1.84-0.27c-0.5-0.18-0.92-0.45-1.26-0.8c-0.34-0.35-0.59-0.78-0.76-1.29h2.06c0.18,0.21,0.42,0.37,0.7,0.48
					c0.29,0.11,0.63,0.16,1.02,0.16c0.5,0,0.9-0.08,1.21-0.23c0.31-0.15,0.52-0.36,0.65-0.6s0.19-0.67,0.19-1.27
					c-0.33,0.33-0.67,0.56-1.03,0.71s-0.77,0.21-1.22,0.21c-1,0-1.84-0.36-2.53-1.08c-0.69-0.72-1.03-1.63-1.03-2.73
					c0-1.18,0.36-2.13,1.09-2.84c0.66-0.65,1.45-0.97,2.37-0.97c0.43,0,0.83,0.08,1.21,0.24s0.76,0.42,1.15,0.78V67.98z
					 M102.72,69.53c-0.59,0-1.07,0.2-1.46,0.59c-0.38,0.39-0.57,0.89-0.57,1.49c0,0.62,0.2,1.13,0.59,1.52s0.88,0.59,1.48,0.59
					c0.58,0,1.06-0.19,1.43-0.58c0.38-0.39,0.56-0.9,0.56-1.52c0-0.62-0.19-1.12-0.57-1.51C103.8,69.73,103.31,69.53,102.72,69.53z"
					/>
				<path class="st2" d="M107.57,67.98h1.91l1.93,4.67l2.13-4.67h1.91l-4.66,10.16h-1.93l1.53-3.28L107.57,67.98z"/>
				<path class="st2" d="M120.85,64.92c0.33,0,0.61,0.12,0.84,0.36c0.23,0.24,0.35,0.52,0.35,0.86c0,0.33-0.12,0.62-0.35,0.85
					c-0.23,0.23-0.51,0.35-0.83,0.35c-0.33,0-0.61-0.12-0.85-0.36s-0.35-0.53-0.35-0.87c0-0.33,0.12-0.61,0.35-0.84
					C120.24,65.03,120.52,64.92,120.85,64.92z M119.92,67.98h1.87v7.44h-1.87V67.98z"/>
				<path class="st2" d="M123.48,67.98h1.87v0.76c0.42-0.36,0.81-0.61,1.15-0.74c0.34-0.14,0.69-0.21,1.05-0.21
					c0.74,0,1.36,0.26,1.88,0.77c0.43,0.44,0.65,1.08,0.65,1.94v4.92h-1.85v-3.26c0-0.89-0.04-1.48-0.12-1.77
					c-0.08-0.29-0.22-0.51-0.42-0.67c-0.2-0.15-0.44-0.23-0.73-0.23c-0.38,0-0.7,0.13-0.97,0.38c-0.27,0.25-0.46,0.6-0.56,1.05
					c-0.05,0.23-0.08,0.73-0.08,1.51v2.98h-1.87V67.98z"/>
				<path class="st2" d="M140.97,67.98h1.87v7.44h-1.87v-0.79c-0.36,0.35-0.73,0.6-1.1,0.75c-0.37,0.15-0.76,0.23-1.19,0.23
					c-0.96,0-1.79-0.37-2.49-1.12c-0.7-0.75-1.05-1.67-1.05-2.78c0-1.15,0.34-2.09,1.02-2.82c0.68-0.73,1.5-1.1,2.47-1.1
					c0.45,0,0.86,0.08,1.26,0.25c0.39,0.17,0.75,0.42,1.09,0.76V67.98z M139.01,69.51c-0.58,0-1.06,0.2-1.44,0.61
					c-0.38,0.41-0.57,0.93-0.57,1.57c0,0.64,0.19,1.17,0.58,1.59c0.39,0.42,0.87,0.62,1.43,0.62c0.59,0,1.07-0.2,1.46-0.61
					c0.39-0.41,0.58-0.94,0.58-1.6c0-0.65-0.19-1.17-0.58-1.57C140.09,69.71,139.6,69.51,139.01,69.51z"/>
				<path class="st2" d="M144.29,67.98h1.6v0.94c0.17-0.37,0.4-0.65,0.69-0.84s0.6-0.29,0.94-0.29c0.24,0,0.49,0.06,0.76,0.19
					l-0.58,1.61c-0.22-0.11-0.4-0.16-0.54-0.16c-0.29,0-0.53,0.18-0.73,0.53s-0.3,1.05-0.3,2.09l0.01,0.36v3.01h-1.85V67.98z"/>
				<path class="st2" d="M149.93,64.92c0.33,0,0.61,0.12,0.84,0.36c0.23,0.24,0.35,0.52,0.35,0.86c0,0.33-0.12,0.62-0.35,0.85
					c-0.23,0.23-0.51,0.35-0.83,0.35c-0.33,0-0.61-0.12-0.85-0.36s-0.35-0.53-0.35-0.87c0-0.33,0.12-0.61,0.35-0.84
					C149.33,65.03,149.61,64.92,149.93,64.92z M149,67.98h1.87v7.44H149V67.98z"/>
				<path class="st2" d="M158.05,65.11h1.87v10.31h-1.87v-0.79c-0.36,0.35-0.73,0.6-1.1,0.75c-0.37,0.15-0.76,0.23-1.19,0.23
					c-0.96,0-1.79-0.37-2.49-1.12c-0.7-0.75-1.05-1.67-1.05-2.78c0-1.15,0.34-2.09,1.02-2.82c0.68-0.73,1.5-1.1,2.47-1.1
					c0.45,0,0.86,0.08,1.26,0.25c0.39,0.17,0.75,0.42,1.09,0.76V65.11z M156.09,69.51c-0.58,0-1.06,0.2-1.44,0.61
					c-0.38,0.41-0.57,0.93-0.57,1.57c0,0.64,0.19,1.17,0.58,1.59c0.39,0.42,0.87,0.62,1.43,0.62c0.59,0,1.07-0.2,1.46-0.61
					c0.39-0.41,0.58-0.94,0.58-1.6c0-0.65-0.19-1.17-0.58-1.57C157.17,69.71,156.68,69.51,156.09,69.51z"/>
				<path class="st2" d="M172.86,72.24h-5.99c0.09,0.53,0.32,0.95,0.69,1.26c0.38,0.31,0.86,0.47,1.44,0.47c0.7,0,1.3-0.24,1.8-0.73
					l1.57,0.74c-0.39,0.56-0.86,0.97-1.41,1.23s-1.2,0.4-1.95,0.4c-1.17,0-2.12-0.37-2.85-1.1c-0.73-0.74-1.1-1.66-1.1-2.77
					c0-1.13,0.37-2.08,1.1-2.83c0.73-0.75,1.65-1.12,2.75-1.12c1.17,0,2.12,0.38,2.86,1.12c0.73,0.75,1.1,1.74,1.1,2.97
					L172.86,72.24z M170.99,70.77c-0.12-0.41-0.37-0.75-0.73-1.01c-0.36-0.26-0.78-0.39-1.26-0.39c-0.52,0-0.98,0.15-1.37,0.44
					c-0.25,0.18-0.47,0.5-0.68,0.96H170.99z"/>
				<path class="st2" d="M174.37,67.98h1.87v0.76c0.42-0.36,0.81-0.61,1.15-0.74c0.34-0.14,0.7-0.21,1.05-0.21
					c0.74,0,1.36,0.26,1.88,0.77c0.43,0.44,0.65,1.08,0.65,1.94v4.92h-1.85v-3.26c0-0.89-0.04-1.48-0.12-1.77
					c-0.08-0.29-0.22-0.51-0.42-0.67c-0.2-0.15-0.44-0.23-0.73-0.23c-0.38,0-0.7,0.13-0.97,0.38c-0.27,0.25-0.46,0.6-0.56,1.05
					c-0.05,0.23-0.08,0.73-0.08,1.51v2.98h-1.87V67.98z"/>
				<path class="st2" d="M181.97,67.98h1.9l1.88,4.39l1.87-4.39h1.89l-3.16,7.44h-1.21L181.97,67.98z"/>
				<path class="st2" d="M191.34,64.92c0.33,0,0.61,0.12,0.84,0.36c0.23,0.24,0.35,0.52,0.35,0.86c0,0.33-0.12,0.62-0.35,0.85
					c-0.23,0.23-0.51,0.35-0.83,0.35c-0.33,0-0.62-0.12-0.85-0.36c-0.23-0.24-0.35-0.53-0.35-0.87c0-0.33,0.12-0.61,0.35-0.84
					S191.01,64.92,191.34,64.92z M190.4,67.98h1.87v7.44h-1.87V67.98z"/>
				<path class="st2" d="M193.53,67.98h1.6v0.94c0.17-0.37,0.4-0.65,0.69-0.84s0.6-0.29,0.94-0.29c0.24,0,0.49,0.06,0.76,0.19
					l-0.58,1.61c-0.22-0.11-0.4-0.16-0.54-0.16c-0.29,0-0.53,0.18-0.73,0.53c-0.2,0.36-0.3,1.05-0.3,2.09l0.01,0.36v3.01h-1.85
					V67.98z"/>
				<path class="st2" d="M201.94,67.79c0.7,0,1.36,0.18,1.98,0.53c0.62,0.35,1.1,0.83,1.45,1.43s0.52,1.25,0.52,1.95
					c0,0.7-0.17,1.36-0.52,1.97c-0.35,0.61-0.82,1.09-1.42,1.43c-0.6,0.34-1.26,0.52-1.99,0.52c-1.07,0-1.98-0.38-2.73-1.14
					c-0.75-0.76-1.13-1.68-1.13-2.77c0-1.16,0.43-2.13,1.28-2.91C200.11,68.13,200.97,67.79,201.94,67.79z M201.97,69.55
					c-0.58,0-1.06,0.2-1.45,0.61s-0.58,0.92-0.58,1.55c0,0.65,0.19,1.17,0.57,1.57c0.38,0.4,0.86,0.6,1.45,0.6
					c0.58,0,1.07-0.2,1.46-0.61c0.39-0.41,0.58-0.93,0.58-1.57c0-0.64-0.19-1.16-0.57-1.55C203.05,69.75,202.56,69.55,201.97,69.55z
					"/>
				<path class="st2" d="M207.41,67.98h1.87v0.76c0.42-0.36,0.81-0.61,1.15-0.74c0.34-0.14,0.7-0.21,1.05-0.21
					c0.74,0,1.36,0.26,1.88,0.77C213.79,69,214,69.65,214,70.5v4.92h-1.85v-3.26c0-0.89-0.04-1.48-0.12-1.77
					c-0.08-0.29-0.22-0.51-0.42-0.67c-0.2-0.15-0.44-0.23-0.73-0.23c-0.38,0-0.7,0.13-0.97,0.38c-0.27,0.25-0.46,0.6-0.56,1.05
					c-0.05,0.23-0.08,0.73-0.08,1.51v2.98h-1.87V67.98z"/>
				<path class="st2" d="M215.79,67.98h1.87v0.85c0.32-0.35,0.67-0.61,1.06-0.79c0.39-0.17,0.82-0.26,1.28-0.26
					c0.46,0,0.88,0.11,1.26,0.34c0.37,0.23,0.67,0.56,0.9,1c0.3-0.44,0.66-0.77,1.09-1c0.43-0.23,0.9-0.34,1.41-0.34
					c0.53,0,0.99,0.12,1.4,0.37s0.69,0.57,0.87,0.96s0.26,1.04,0.26,1.93v4.36h-1.88v-3.77c0-0.84-0.1-1.41-0.31-1.71
					c-0.21-0.3-0.52-0.45-0.94-0.45c-0.32,0-0.61,0.09-0.86,0.27c-0.25,0.18-0.44,0.43-0.56,0.76s-0.18,0.84-0.18,1.55v3.36h-1.88
					v-3.6c0-0.67-0.05-1.15-0.15-1.45c-0.1-0.3-0.25-0.52-0.44-0.67c-0.2-0.15-0.43-0.22-0.71-0.22c-0.31,0-0.59,0.09-0.85,0.28
					c-0.25,0.18-0.44,0.44-0.57,0.78c-0.13,0.33-0.19,0.86-0.19,1.57v3.31h-1.87V67.98z"/>
				<path class="st2" d="M236.42,72.24h-6c0.09,0.53,0.32,0.95,0.69,1.26c0.38,0.31,0.86,0.47,1.44,0.47c0.7,0,1.3-0.24,1.8-0.73
					l1.57,0.74c-0.39,0.56-0.86,0.97-1.41,1.23s-1.2,0.4-1.95,0.4c-1.17,0-2.12-0.37-2.85-1.1c-0.73-0.74-1.1-1.66-1.1-2.77
					c0-1.13,0.37-2.08,1.1-2.83c0.73-0.75,1.65-1.12,2.75-1.12c1.17,0,2.12,0.38,2.86,1.12c0.73,0.75,1.1,1.74,1.1,2.97
					L236.42,72.24z M234.55,70.77c-0.12-0.41-0.37-0.75-0.73-1.01c-0.36-0.26-0.78-0.39-1.26-0.39c-0.52,0-0.98,0.15-1.37,0.44
					c-0.25,0.18-0.47,0.5-0.68,0.96H234.55z"/>
				<path class="st2" d="M237.93,67.98h1.87v0.76c0.42-0.36,0.81-0.61,1.15-0.74c0.34-0.14,0.7-0.21,1.05-0.21
					c0.74,0,1.36,0.26,1.88,0.77c0.43,0.44,0.65,1.08,0.65,1.94v4.92h-1.85v-3.26c0-0.89-0.04-1.48-0.12-1.77
					c-0.08-0.29-0.22-0.51-0.42-0.67c-0.2-0.15-0.44-0.23-0.73-0.23c-0.38,0-0.7,0.13-0.97,0.38c-0.27,0.25-0.46,0.6-0.56,1.05
					c-0.05,0.23-0.08,0.73-0.08,1.51v2.98h-1.87V67.98z"/>
				<path class="st2" d="M246.56,65.24h1.87v2.74h1.11v1.61h-1.11v5.83h-1.87v-5.83h-0.96v-1.61h0.96V65.24z"/>
				<path class="st2" d="M255.08,69.02l-1.16,1.16c-0.47-0.46-0.9-0.7-1.28-0.7c-0.21,0-0.37,0.04-0.49,0.13s-0.18,0.2-0.18,0.33
					c0,0.1,0.04,0.19,0.11,0.28c0.07,0.08,0.26,0.2,0.56,0.34l0.68,0.34c0.72,0.36,1.21,0.72,1.48,1.09s0.4,0.8,0.4,1.3
					c0,0.66-0.24,1.21-0.73,1.65c-0.48,0.44-1.14,0.66-1.95,0.66c-1.08,0-1.95-0.42-2.6-1.27l1.15-1.25
					c0.22,0.26,0.47,0.46,0.77,0.62c0.29,0.16,0.55,0.24,0.78,0.24c0.25,0,0.44-0.06,0.59-0.18c0.15-0.12,0.23-0.25,0.23-0.41
					c0-0.29-0.27-0.57-0.81-0.84l-0.63-0.31c-1.2-0.61-1.8-1.36-1.8-2.28c0-0.59,0.23-1.09,0.68-1.51c0.45-0.42,1.03-0.63,1.74-0.63
					c0.48,0,0.94,0.11,1.36,0.32C254.42,68.32,254.78,68.62,255.08,69.02z"/>
			</g>
			<line class="st1" x1="171.24" y1="301.2" x2="171.24" y2="-58.8"/>
			<line class="st1" x1="339.9" y1="81.2" x2="-20.1" y2="81.2"/>
			<g>
				<path class="st3" d="M6.41,34.49h5.2v2.38c0.89-0.98,1.88-1.71,2.96-2.19c1.09-0.48,2.27-0.72,3.55-0.72
					c1.3,0,2.46,0.32,3.51,0.95c1.04,0.63,1.88,1.56,2.52,2.78c0.83-1.22,1.84-2.15,3.04-2.78s2.51-0.95,3.94-0.95
					c1.47,0,2.77,0.34,3.89,1.03s1.92,1.58,2.41,2.69s0.73,2.9,0.73,5.39v12.15h-5.24V44.69c0-2.35-0.29-3.94-0.88-4.77
					c-0.58-0.83-1.46-1.25-2.63-1.25c-0.89,0-1.69,0.25-2.39,0.76c-0.71,0.51-1.23,1.21-1.57,2.1c-0.34,0.89-0.51,2.33-0.51,4.31
					v9.35h-5.24V45.17c0-1.85-0.14-3.2-0.41-4.03c-0.27-0.83-0.68-1.45-1.23-1.86s-1.21-0.61-1.99-0.61c-0.87,0-1.65,0.26-2.36,0.77
					c-0.71,0.51-1.23,1.23-1.58,2.16s-0.52,2.39-0.52,4.38v9.22h-5.2V34.49z"/>
				<path class="st3" d="M65.15,46.35h-16.7c0.24,1.47,0.89,2.64,1.93,3.51c1.05,0.87,2.38,1.3,4.01,1.3c1.94,0,3.61-0.68,5.01-2.04
					l4.38,2.06c-1.09,1.55-2.4,2.7-3.92,3.44c-1.52,0.74-3.33,1.11-5.43,1.11c-3.25,0-5.9-1.03-7.94-3.08
					c-2.04-2.05-3.07-4.62-3.07-7.7c0-3.16,1.02-5.79,3.06-7.87c2.04-2.09,4.59-3.13,7.67-3.13c3.26,0,5.92,1.04,7.96,3.13
					s3.07,4.85,3.07,8.27L65.15,46.35z M59.96,42.26c-0.34-1.16-1.02-2.09-2.03-2.82c-1.01-0.72-2.18-1.09-3.52-1.09
					c-1.45,0-2.72,0.41-3.81,1.22c-0.69,0.51-1.32,1.4-1.91,2.69H59.96z"/>
				<path class="st3" d="M70.08,26.49h5.2v28.72h-5.2V26.49z"/>
				<path class="st3" d="M96.58,34.49h5.2v20.72h-5.2v-2.19c-1.01,0.96-2.03,1.66-3.05,2.09c-1.02,0.42-2.13,0.64-3.32,0.64
					c-2.68,0-4.99-1.04-6.94-3.11c-1.95-2.08-2.93-4.66-2.93-7.74c0-3.2,0.94-5.82,2.83-7.86c1.89-2.04,4.18-3.07,6.89-3.07
					c1.24,0,2.41,0.23,3.5,0.7c1.09,0.47,2.1,1.17,3.02,2.11V34.49z M91.11,38.75c-1.61,0-2.94,0.57-4,1.7
					c-1.06,1.14-1.59,2.59-1.59,4.37c0,1.79,0.54,3.26,1.62,4.42s2.41,1.73,4,1.73c1.63,0,2.99-0.57,4.06-1.7
					c1.08-1.14,1.61-2.62,1.61-4.47c0-1.8-0.54-3.26-1.61-4.38S92.76,38.75,91.11,38.75z"/>
				<path class="st3" d="M108.32,34.49h5.2v2.12c1.18-0.99,2.25-1.68,3.2-2.07c0.96-0.39,1.94-0.58,2.94-0.58
					c2.05,0,3.8,0.72,5.23,2.15c1.2,1.22,1.81,3.02,1.81,5.41v13.69h-5.14v-9.07c0-2.47-0.11-4.11-0.33-4.93
					c-0.22-0.81-0.61-1.43-1.16-1.85c-0.55-0.42-1.23-0.64-2.04-0.64c-1.05,0-1.95,0.35-2.71,1.06c-0.75,0.7-1.28,1.68-1.57,2.92
					c-0.15,0.65-0.23,2.05-0.23,4.2v8.31h-5.2V34.49z"/>
				<path class="st3" d="M148.3,26.49h5.2v28.72h-5.2v-2.19c-1.01,0.96-2.03,1.66-3.05,2.09c-1.02,0.42-2.13,0.64-3.32,0.64
					c-2.68,0-4.99-1.04-6.94-3.11c-1.95-2.08-2.93-4.66-2.93-7.74c0-3.2,0.94-5.82,2.83-7.86c1.89-2.04,4.18-3.07,6.89-3.07
					c1.24,0,2.41,0.23,3.5,0.7c1.09,0.47,2.1,1.17,3.03,2.11V26.49z M142.84,38.75c-1.61,0-2.94,0.57-4,1.7
					c-1.06,1.14-1.59,2.59-1.59,4.37c0,1.79,0.54,3.26,1.62,4.42c1.08,1.16,2.41,1.73,4,1.73c1.63,0,2.99-0.57,4.06-1.7
					c1.08-1.14,1.61-2.62,1.61-4.47c0-1.8-0.54-3.26-1.61-4.38C145.84,39.31,144.48,38.75,142.84,38.75z"/>
				<path class="st3" d="M158.82,34.49h4.46v2.61c0.48-1.03,1.12-1.81,1.92-2.34c0.8-0.53,1.68-0.8,2.63-0.8
					c0.67,0,1.38,0.18,2.11,0.53l-1.62,4.48c-0.61-0.3-1.11-0.46-1.5-0.46c-0.8,0-1.48,0.5-2.03,1.49
					c-0.55,0.99-0.83,2.93-0.83,5.83l0.02,1.01v8.38h-5.16V34.49z"/>
				<path class="st3" d="M175.83,25.95c0.91,0,1.69,0.33,2.34,0.99s0.98,1.46,0.98,2.4c0,0.93-0.32,1.72-0.97,2.37
					s-1.42,0.98-2.32,0.98c-0.92,0-1.71-0.33-2.36-1c-0.65-0.67-0.98-1.48-0.98-2.43c0-0.91,0.32-1.69,0.97-2.34
					S174.92,25.95,175.83,25.95z M173.23,34.49h5.2v20.72h-5.2V34.49z"/>
				<path class="st3" d="M196.07,26.49h5.2v28.72h-5.2V26.49z"/>
				<path class="st3" d="M222.57,34.49h5.2v20.72h-5.2v-2.19c-1.01,0.96-2.03,1.66-3.05,2.09c-1.02,0.42-2.13,0.64-3.32,0.64
					c-2.68,0-4.99-1.04-6.94-3.11c-1.95-2.08-2.93-4.66-2.93-7.74c0-3.2,0.94-5.82,2.83-7.86s4.18-3.07,6.89-3.07
					c1.24,0,2.41,0.23,3.5,0.7c1.09,0.47,2.1,1.17,3.03,2.11V34.49z M217.1,38.75c-1.61,0-2.94,0.57-4,1.7
					c-1.06,1.14-1.59,2.59-1.59,4.37c0,1.79,0.54,3.26,1.62,4.42c1.08,1.16,2.41,1.73,4,1.73c1.63,0,2.99-0.57,4.06-1.7
					c1.08-1.14,1.61-2.62,1.61-4.47c0-1.8-0.54-3.26-1.61-4.38C220.11,39.31,218.75,38.75,217.1,38.75z"/>
				<path class="st3" d="M239.47,26.49v10.28c0.94-0.94,1.95-1.64,3.05-2.11c1.09-0.47,2.26-0.7,3.5-0.7c2.7,0,5,1.02,6.89,3.07
					s2.84,4.67,2.84,7.86c0,3.09-0.98,5.67-2.93,7.74c-1.96,2.08-4.27,3.11-6.95,3.11c-1.19,0-2.3-0.21-3.33-0.64
					c-1.03-0.43-2.05-1.12-3.07-2.09v2.19h-5.16V26.49H239.47z M244.93,38.75c-1.64,0-3,0.56-4.08,1.68s-1.62,2.58-1.62,4.38
					c0,1.84,0.54,3.33,1.62,4.47c1.08,1.14,2.44,1.7,4.08,1.7c1.59,0,2.92-0.58,4.01-1.73c1.08-1.16,1.63-2.63,1.63-4.42
					c0-1.78-0.53-3.23-1.6-4.37C247.91,39.32,246.56,38.75,244.93,38.75z"/>
			</g>
		</g>
		<path class="st4" d="M266.54,54.45c17.88,0,35.76,0,53.64,0c1.95,0,3.9,0,5.86,0c4.17,0,8.34,0,12.51,0"/>
		<polyline class="st5" points="273.64,54.45 279.9,59.66 288.04,59.66 290.54,54.45 298.48,54.45 298.48,59.66 292.22,62.79 
			288.67,63.84 288.25,68.85 285.18,71.35 278.13,69.26 278.59,66.79 279.9,59.66 		"/>
		<line class="st5" x1="278.59" y1="66.79" x2="266.54" y2="69.47"/>
		<line class="st5" x1="288.04" y1="59.66" x2="292.22" y2="62.79"/>
		<polyline class="st5" points="298.48,59.79 304.94,62.92 311.03,61.36 318.45,54.45 325.19,62.92 330.61,61.36 332.28,54.58 		"/>
		<line class="st6" x1="330.61" y1="61.23" x2="338.54" y2="70.73"/>
		<polyline class="st5" points="325.19,62.92 320.27,63.84 313.29,73.44 308.28,74.69 293.47,73.65 288.25,68.85 		"/>
		<line class="st5" x1="311.03" y1="61.23" x2="317.46" y2="67.7"/>
		<polyline class="st5" points="315.38,70.57 320.27,72.19 323.94,70.73 330.61,79.91 334.58,78.86 		"/>
		<line class="st5" x1="330.61" y1="79.91" x2="325.19" y2="86.38"/>
		<polyline class="st5" points="320.27,72.19 320.27,78.03 315.38,83.14 320.27,87.42 		"/>
		<path class="st5" d="M315.38,83.14"/>
		<polyline class="st5" points="292.22,83.14 285.18,81.37 280.98,80.2 274.48,78.39 278.13,69.26 		"/>
		<line class="st5" x1="280.98" y1="80.2" x2="275.58" y2="85.6"/>
		<polyline class="st5" points="304.94,62.79 303.48,65.98 307.26,69.26 307.26,74.69 307.26,78.24 303.48,83.14 298.48,83.14 
			292.22,83.14 290.13,77.19 293.47,73.65 		"/>
		<line class="st5" x1="315.38" y1="83.14" x2="305.24" y2="80.86"/>
		<g>
			<g>
				<g>
					<path class="st7" d="M267.32,22.08l3.82-2.16c0.24-0.13,0.53-0.05,0.67,0.18l0,0c0.13,0.24,0.05,0.53-0.18,0.67l-3.82,2.16
						c-0.24,0.13-0.53,0.05-0.67-0.18v0C267,22.51,267.08,22.21,267.32,22.08z"/>
				</g>
				<g>
					<path class="st7" d="M266.03,16.1l4.39,0.04c0.27,0,0.49,0.22,0.49,0.49l0,0c0,0.27-0.22,0.49-0.49,0.49l-4.39-0.04
						c-0.27,0-0.49-0.22-0.49-0.49l0,0C265.54,16.32,265.76,16.1,266.03,16.1z"/>
				</g>
				<g>
					<path class="st7" d="M267.9,10.28l3.78,2.22c0.23,0.14,0.31,0.44,0.17,0.67v0c-0.14,0.23-0.44,0.31-0.67,0.17l-3.78-2.22
						c-0.23-0.14-0.31-0.44-0.17-0.67v0C267.37,10.22,267.67,10.14,267.9,10.28z"/>
				</g>
				<g>
					<path class="st7" d="M272.44,6.17l2.16,3.82c0.13,0.24,0.05,0.53-0.18,0.67l0,0c-0.24,0.13-0.53,0.05-0.67-0.18l-2.16-3.82
						c-0.13-0.24-0.05-0.53,0.18-0.67v0C272,5.86,272.3,5.94,272.44,6.17z"/>
				</g>
				<g>
					<path class="st7" d="M278.41,4.89l-0.04,4.39c0,0.27-0.22,0.49-0.49,0.49l0,0c-0.27,0-0.49-0.22-0.49-0.49l0.04-4.39
						c0-0.27,0.22-0.49,0.49-0.49l0,0C278.2,4.39,278.42,4.62,278.41,4.89z"/>
				</g>
				<g>
					<path class="st7" d="M284.24,6.76l-2.22,3.78c-0.14,0.23-0.44,0.31-0.67,0.17v0c-0.23-0.14-0.31-0.44-0.17-0.67l2.22-3.78
						c0.14-0.23,0.44-0.31,0.67-0.17v0C284.3,6.23,284.37,6.53,284.24,6.76z"/>
				</g>
				<g>
					<path class="st7" d="M288.34,11.29l-3.82,2.16c-0.24,0.13-0.53,0.05-0.67-0.18v0c-0.13-0.24-0.05-0.53,0.18-0.67l3.82-2.16
						c0.24-0.13,0.53-0.05,0.67,0.18v0C288.66,10.86,288.58,11.16,288.34,11.29z"/>
				</g>
				<g>
					<path class="st7" d="M289.63,17.27l-4.39-0.04c-0.27,0-0.49-0.22-0.49-0.49l0,0c0-0.27,0.22-0.49,0.49-0.49l4.39,0.04
						c0.27,0,0.49,0.22,0.49,0.49l0,0C290.12,17.05,289.9,17.27,289.63,17.27z"/>
				</g>
				<g>
					<path class="st7" d="M287.76,23.09l-3.78-2.22c-0.23-0.14-0.31-0.44-0.17-0.67l0,0c0.14-0.23,0.44-0.31,0.67-0.17l3.78,2.22
						c0.23,0.14,0.31,0.44,0.17,0.67l0,0C288.29,23.15,287.99,23.23,287.76,23.09z"/>
				</g>
				<g>
					<path class="st7" d="M283.22,27.2l-2.16-3.82c-0.13-0.24-0.05-0.53,0.18-0.67v0c0.24-0.13,0.53-0.05,0.67,0.18l2.16,3.82
						c0.13,0.24,0.05,0.53-0.18,0.67l0,0C283.65,27.51,283.36,27.43,283.22,27.2z"/>
				</g>
				<g>
					<path class="st7" d="M277.25,28.48l0.04-4.39c0-0.27,0.22-0.49,0.49-0.49l0,0c0.27,0,0.49,0.22,0.49,0.49l-0.04,4.39
						c0,0.27-0.22,0.49-0.49,0.49l0,0C277.46,28.98,277.24,28.76,277.25,28.48z"/>
				</g>
				<g>
					<path class="st7" d="M271.42,26.61l2.22-3.78c0.14-0.23,0.44-0.31,0.67-0.17l0,0c0.23,0.14,0.31,0.44,0.17,0.67l-2.22,3.78
						c-0.14,0.23-0.44,0.31-0.67,0.17l0,0C271.36,27.15,271.29,26.85,271.42,26.61z"/>
				</g>
			</g>
			<g>
				<circle class="st8" cx="277.83" cy="16.69" r="4.98"/>
			</g>
		</g>
		<polyline class="st9" points="319.1,54.15 319.1,40.34 319.1,31.88 		"/>
		<line class="st9" x1="326.44" y1="35.48" x2="319.1" y2="41.13"/>
		<line class="st9" x1="311.76" y1="35.48" x2="319.1" y2="41.13"/>
		<g>
			<circle class="st2" cx="337.91" cy="27" r="0.65"/>
			<circle class="st2" cx="336.17" cy="28.35" r="0.97"/>
			<circle class="st2" cx="329.52" cy="33.55" r="1.17"/>
			<circle class="st2" cx="331.79" cy="31.77" r="1.17"/>
			<circle class="st2" cx="331.82" cy="31.75" r="1.17"/>
			<circle class="st2" cx="334.11" cy="29.96" r="1.17"/>
			<path class="st2" d="M337.92,28.49c0.28-0.22,0.69-0.17,0.91,0.11c0.22,0.28,0.17,0.69-0.11,0.91c-0.28,0.22-0.69,0.17-0.91-0.11
				S337.64,28.71,337.92,28.49"/>
			<path class="st2" d="M336.26,30.16c0.42-0.33,1.04-0.26,1.37,0.17c0.33,0.42,0.26,1.04-0.17,1.37c-0.42,0.33-1.04,0.26-1.37-0.17
				C335.76,31.1,335.84,30.49,336.26,30.16"/>
			<path class="st2" d="M329.49,35.2c0.51-0.4,1.24-0.31,1.64,0.2c0.4,0.51,0.31,1.24-0.2,1.64c-0.51,0.4-1.24,0.31-1.64-0.2
				C328.9,36.33,328.99,35.59,329.49,35.2"/>
			<path class="st2" d="M331.76,33.42c0.51-0.4,1.24-0.31,1.64,0.2c0.4,0.51,0.31,1.24-0.2,1.64c-0.51,0.4-1.24,0.31-1.64-0.2
				C331.17,34.55,331.26,33.82,331.76,33.42"/>
			<path class="st2" d="M331.8,33.4c0.51-0.4,1.24-0.31,1.64,0.2c0.4,0.51,0.31,1.24-0.2,1.64s-1.24,0.31-1.64-0.2
				C331.2,34.53,331.29,33.79,331.8,33.4"/>
			<path class="st2" d="M334.09,31.61c0.51-0.4,1.24-0.31,1.64,0.2c0.4,0.51,0.31,1.24-0.2,1.64c-0.51,0.4-1.24,0.31-1.64-0.2
				C333.49,32.74,333.58,32.01,334.09,31.61"/>
			<path class="st2" d="M336.46,26.62c0.28-0.22,0.33-0.63,0.11-0.91s-0.63-0.33-0.91-0.11c-0.28,0.22-0.33,0.63-0.11,0.91
				S336.18,26.84,336.46,26.62"/>
			<path class="st2" d="M334.44,27.83c0.42-0.33,0.5-0.94,0.17-1.37c-0.33-0.42-0.94-0.5-1.37-0.17c-0.42,0.33-0.5,0.94-0.17,1.37
				C333.41,28.09,334.02,28.16,334.44,27.83"/>
			<path class="st2" d="M327.92,33.18c0.51-0.4,0.6-1.13,0.2-1.64c-0.4-0.51-1.13-0.6-1.64-0.2s-0.6,1.13-0.2,1.64
				C326.67,33.48,327.41,33.57,327.92,33.18"/>
			<path class="st2" d="M330.19,31.4c0.51-0.4,0.6-1.13,0.2-1.64c-0.4-0.51-1.13-0.6-1.64-0.2s-0.6,1.13-0.2,1.64
				C328.94,31.71,329.68,31.8,330.19,31.4"/>
			<path class="st2" d="M330.22,31.38c0.51-0.4,0.6-1.13,0.2-1.64c-0.4-0.51-1.13-0.6-1.64-0.2s-0.6,1.13-0.2,1.64
				S329.71,31.77,330.22,31.38"/>
			<path class="st2" d="M332.51,29.59c0.51-0.4,0.6-1.13,0.2-1.64c-0.4-0.51-1.13-0.6-1.64-0.2s-0.6,1.13-0.2,1.64
				S332,29.99,332.51,29.59"/>
			<circle class="st2" cx="339.43" cy="25.8" r="0.51"/>
			<path class="st2" d="M339.12,27.88c-0.17-0.22-0.13-0.54,0.09-0.71"/>
			<path class="st2" d="M339.21,27.17c0.22-0.17,0.54-0.13,0.71,0.09s0.13,0.54-0.09,0.71c-0.22,0.17-0.54,0.13-0.71-0.09"/>
			<path class="st2" d="M337.35,25.61c0.17,0.22,0.49,0.26,0.71,0.09"/>
			<path class="st2" d="M338.06,25.7c0.22-0.17,0.26-0.49,0.09-0.71c-0.17-0.22-0.49-0.26-0.71-0.09c-0.22,0.17-0.26,0.49-0.09,0.71
				"/>
		</g>
		<g>
			<g>
				<g>
					
						<ellipse transform="matrix(0.3924 -0.9198 0.9198 0.3924 154.7247 303.3936)" class="st2" cx="307" cy="34.58" rx="2.89" ry="2.6"/>
				</g>
				<g>
					
						<ellipse transform="matrix(0.089 -0.996 0.996 0.089 241.6232 332.038)" class="st2" cx="302.32" cy="33.94" rx="2.6" ry="2.89"/>
				</g>
				<g>
					
						<ellipse transform="matrix(0.9748 -0.2232 0.2232 0.9748 1.07 68.0256)" class="st2" cx="301.49" cy="29.28" rx="2.6" ry="2.89"/>
				</g>
				<g>
					
						<ellipse transform="matrix(0.8581 -0.5135 0.5135 0.8581 29.4821 160.7906)" class="st2" cx="305.66" cy="27.05" rx="2.89" ry="2.6"/>
				</g>
				<g>
					
						<ellipse transform="matrix(0.6574 -0.7535 0.7535 0.6574 83.0226 243.2796)" class="st2" cx="309.07" cy="30.33" rx="2.6" ry="2.89"/>
				</g>
			</g>
			<circle class="st2" cx="304.94" cy="30.94" r="2.3"/>
		</g>
		<g>
			<g>
				<path class="st10" d="M317.72,25.79c1.06,0.61,1.32,2.17,1.32,2.17s-1.47,0.56-2.53-0.06c-1.06-0.61-1.32-2.17-1.32-2.17
					S316.66,25.18,317.72,25.79z"/>
				<path class="st10" d="M320.48,25.79c-1.06,0.61-1.32,2.17-1.32,2.17s1.47,0.56,2.53-0.06c1.06-0.61,1.32-2.17,1.32-2.17
					S321.54,25.18,320.48,25.79z"/>
			</g>
			<path class="st10" d="M320.32,12.79c0-1.23-1.22-2.22-1.22-2.22s-1.22,0.99-1.22,2.22s1.22,2.22,1.22,2.22
				S320.32,14.02,320.32,12.79z"/>
			<path class="st10" d="M317.72,22.84c1.06,0.61,1.32,2.17,1.32,2.17s-1.47,0.56-2.53-0.06c-1.06-0.61-1.32-2.17-1.32-2.17
				S316.66,22.22,317.72,22.84z"/>
			<path class="st2" d="M317.72,19.98c1.06,0.61,1.32,2.17,1.32,2.17s-1.47,0.56-2.53-0.06s-1.32-2.17-1.32-2.17
				S316.66,19.36,317.72,19.98z"/>
			<path class="st10" d="M317.72,17.12c1.06,0.61,1.32,2.17,1.32,2.17s-1.47,0.56-2.53-0.06c-1.06-0.61-1.32-2.17-1.32-2.17
				S316.66,16.5,317.72,17.12z"/>
			<path class="st2" d="M317.72,14.26c1.06,0.61,1.32,2.17,1.32,2.17s-1.47,0.56-2.53-0.06c-1.06-0.61-1.32-2.17-1.32-2.17
				S316.66,13.64,317.72,14.26z"/>
			<path class="st10" d="M320.48,22.83c-1.06,0.61-1.32,2.17-1.32,2.17s1.47,0.56,2.53-0.06s1.32-2.17,1.32-2.17
				S321.54,22.22,320.48,22.83z"/>
			<path class="st2" d="M320.48,19.97c-1.06,0.61-1.32,2.17-1.32,2.17s1.47,0.56,2.53-0.06c1.06-0.61,1.32-2.17,1.32-2.17
				S321.54,19.36,320.48,19.97z"/>
			<path class="st10" d="M320.48,17.12c-1.06,0.61-1.32,2.17-1.32,2.17s1.47,0.56,2.53-0.06c1.06-0.61,1.32-2.17,1.32-2.17
				S321.54,16.5,320.48,17.12z"/>
			<path class="st2" d="M320.48,14.26c-1.06,0.61-1.32,2.17-1.32,2.17s1.47,0.56,2.53-0.06c1.06-0.61,1.32-2.17,1.32-2.17
				S321.54,13.64,320.48,14.26z"/>
		</g>
	</g>
</g>
<g id="Layer_6" class="st11">
	<g class="st12">
		<line class="st13" x1="282.76" y1="45.13" x2="354.76" y2="45.13"/>
		<path class="st14" d="M345.73,38.61c-10.71-11.11,0-16.22,0-16.22v-5.18c0-5.1-4.14-9.24-9.24-9.24c-5.1,0-9.24,4.14-9.24,9.24
			v20.41v7.51"/>
		<path class="st14" d="M345.28,22.24c0,0,10.71,5.11,0,16.22"/>
		<line class="st14" x1="319.7" y1="30.35" x2="327.25" y2="37.62"/>
		<line class="st14" x1="327.25" y1="27.6" x2="334.1" y2="20.71"/>
		<polyline class="st14" points="289.86,45.13 296.12,50.35 304.26,50.35 306.76,45.13 314.69,45.13 314.69,50.35 308.44,53.48 
			304.89,54.52 304.47,59.53 301.39,62.03 294.35,59.95 294.81,57.47 296.12,50.35 		"/>
		<line class="st14" x1="294.81" y1="57.47" x2="282.76" y2="60.16"/>
		<line class="st14" x1="304.26" y1="50.35" x2="308.44" y2="53.48"/>
		<polyline class="st14" points="314.69,50.35 321.16,53.48 327.25,51.91 333.27,45.13 341.41,53.48 346.83,51.91 348.5,45.13 		"/>
		<line class="st14" x1="346.83" y1="51.91" x2="354.76" y2="61.41"/>
		<polyline class="st14" points="341.41,53.48 336.49,54.52 329.51,64.12 324.5,65.37 309.69,64.33 304.47,59.53 		"/>
		<line class="st14" x1="327.25" y1="51.91" x2="334.1" y2="58.81"/>
		<polyline class="st14" points="331.6,61.25 336.49,62.87 340.16,61.41 346.83,70.59 350.8,69.55 		"/>
		<line class="st14" x1="346.83" y1="70.59" x2="341.41" y2="77.06"/>
		<polyline class="st14" points="336.49,62.87 336.49,68.71 331.6,73.83 336.49,78.1 		"/>
		<path class="st14" d="M331.6,73.83"/>
		<polyline class="st14" points="308.44,73.83 301.39,72.05 297.2,70.89 290.69,69.08 294.35,59.95 		"/>
		<line class="st14" x1="297.2" y1="70.89" x2="291.8" y2="76.29"/>
		<polyline class="st14" points="321.16,53.48 319.7,56.66 323.48,59.95 323.48,65.37 323.48,68.92 319.7,73.83 314.69,73.83 
			308.44,73.83 306.35,67.88 309.69,64.33 		"/>
		<line class="st14" x1="331.6" y1="73.83" x2="321.46" y2="71.54"/>
		<g>
			<g>
				<path class="st15" d="M286.52,23.14l5.4-3.06c0.33-0.19,0.76-0.07,0.94,0.26l0,0c0.19,0.33,0.07,0.76-0.26,0.94l-5.4,3.06
					c-0.33,0.19-0.76,0.07-0.94-0.26v0C286.07,23.76,286.19,23.33,286.52,23.14z"/>
			</g>
			<g>
				<path class="st15" d="M284.7,14.68l6.21,0.05c0.38,0,0.69,0.32,0.69,0.7v0c0,0.38-0.32,0.69-0.7,0.69l-6.21-0.05
					c-0.38,0-0.69-0.32-0.69-0.7v0C284,14.99,284.31,14.68,284.7,14.68z"/>
			</g>
			<g>
				<path class="st15" d="M287.35,6.44l5.35,3.15c0.33,0.19,0.44,0.62,0.25,0.95v0c-0.19,0.33-0.62,0.44-0.95,0.25l-5.35-3.15
					c-0.33-0.19-0.44-0.62-0.25-0.95v0C286.59,6.36,287.02,6.25,287.35,6.44z"/>
			</g>
			<g>
				<path class="st15" d="M293.76,0.63l3.06,5.4c0.19,0.33,0.07,0.76-0.26,0.94v0c-0.33,0.19-0.76,0.07-0.94-0.26l-3.06-5.4
					c-0.19-0.33-0.07-0.76,0.26-0.94v0C293.15,0.18,293.57,0.3,293.76,0.63z"/>
			</g>
			<g>
				<path class="st15" d="M302.22-1.19l-0.05,6.21c0,0.38-0.32,0.69-0.7,0.69l0,0c-0.38,0-0.69-0.32-0.69-0.7l0.05-6.21
					c0-0.38,0.32-0.69,0.7-0.69l0,0C301.92-1.88,302.23-1.57,302.22-1.19z"/>
			</g>
			<g>
				<path class="st15" d="M310.46,1.46l-3.15,5.35c-0.19,0.33-0.62,0.44-0.95,0.25v0c-0.33-0.19-0.44-0.62-0.25-0.95l3.15-5.35
					c0.19-0.33,0.62-0.44,0.95-0.25v0C310.54,0.71,310.66,1.13,310.46,1.46z"/>
			</g>
			<g>
				<path class="st15" d="M316.27,7.88l-5.4,3.06c-0.33,0.19-0.76,0.07-0.94-0.26v0c-0.19-0.33-0.07-0.76,0.26-0.94l5.4-3.06
					c0.33-0.19,0.76-0.07,0.94,0.26v0C316.72,7.27,316.6,7.69,316.27,7.88z"/>
			</g>
			<g>
				<path class="st15" d="M318.09,16.34l-6.21-0.05c-0.38,0-0.69-0.32-0.69-0.7v0c0-0.38,0.32-0.69,0.7-0.69l6.21,0.05
					c0.38,0,0.69,0.32,0.69,0.7v0C318.79,16.03,318.48,16.34,318.09,16.34z"/>
			</g>
			<g>
				<path class="st15" d="M315.44,24.58l-5.35-3.15c-0.33-0.19-0.44-0.62-0.25-0.95l0,0c0.19-0.33,0.62-0.44,0.95-0.25l5.35,3.15
					c0.33,0.19,0.44,0.62,0.25,0.95l0,0C316.2,24.66,315.77,24.77,315.44,24.58z"/>
			</g>
			<g>
				<path class="st15" d="M309.03,30.39l-3.06-5.4c-0.19-0.33-0.07-0.76,0.26-0.94l0,0c0.33-0.19,0.76-0.07,0.94,0.26l3.06,5.4
					c0.19,0.33,0.07,0.76-0.26,0.94l0,0C309.64,30.84,309.22,30.72,309.03,30.39z"/>
			</g>
			<g>
				<path class="st15" d="M300.57,32.21l0.05-6.21c0-0.38,0.32-0.69,0.7-0.69l0,0c0.38,0,0.69,0.32,0.69,0.7l-0.05,6.21
					c0,0.38-0.32,0.69-0.7,0.69l0,0C300.87,32.9,300.56,32.59,300.57,32.21z"/>
			</g>
			<g>
				<path class="st15" d="M292.33,29.56l3.15-5.35c0.19-0.33,0.62-0.44,0.95-0.25l0,0c0.33,0.19,0.44,0.62,0.25,0.95l-3.15,5.35
					c-0.19,0.33-0.62,0.44-0.95,0.25v0C292.24,30.31,292.13,29.89,292.33,29.56z"/>
			</g>
		</g>
		<g>
			<circle class="st13" cx="301.39" cy="15.51" r="7.04"/>
		</g>
	</g>
</g>
</svg>
