<?xml version="1.0" encoding="utf-8"?>
<!-- Generator: Adobe Illustrator 27.7.0, SVG Export Plug-In . SVG Version: 6.00 Build 0)  -->
<svg version="1.1" xmlns="http://www.w3.org/2000/svg" xmlns:xlink="http://www.w3.org/1999/xlink" x="0px" y="0px"
	 viewBox="0 0 360 360" style="enable-background:new 0 0 360 360;" xml:space="preserve">
<style type="text/css">
	.st0{fill:#791232;stroke:#FFFFFF;stroke-miterlimit:10;}
	.st1{fill:none;}
	.st2{fill:#F3991F;}
	.st3{fill:#FFFFFF;}
	.st4{fill:none;stroke:#F3991F;stroke-width:1.2831;stroke-miterlimit:10;}
	.st5{fill:none;stroke:#F3991F;stroke-width:1.1474;stroke-miterlimit:10;}
	.st6{fill:#F3991F;stroke:#F3991F;stroke-width:0.0203;stroke-miterlimit:10;}
</style>
<g id="Background">
	<rect class="st0" width="360" height="360"/>
</g>
<g id="paths">
</g>
<g id="_x22_melandri_x22_">
	<g>
		<g>
			<polygon class="st1" points="10.68,235.34 260.01,235.34 260.01,146.79 10.66,146.79 			"/>
			<path class="st2" d="M18.89,190.28l-1.55,0.85c-0.29-0.31-0.58-0.52-0.87-0.64c-0.29-0.12-0.62-0.18-1-0.18
				c-0.7,0-1.26,0.21-1.69,0.62c-0.43,0.42-0.65,0.95-0.65,1.6c0,0.63,0.21,1.15,0.62,1.55c0.42,0.4,0.96,0.6,1.64,0.6
				c0.84,0,1.49-0.29,1.95-0.85l1.47,1.01c-0.8,1.04-1.92,1.56-3.38,1.56c-1.31,0-2.33-0.39-3.07-1.16
				c-0.74-0.78-1.11-1.68-1.11-2.72c0-0.72,0.18-1.38,0.54-1.99c0.36-0.61,0.86-1.08,1.51-1.43c0.65-0.35,1.37-0.52,2.16-0.52
				c0.74,0,1.4,0.15,1.99,0.44S18.52,189.74,18.89,190.28z"/>
			<path class="st2" d="M20.14,188.78h1.6v0.94c0.17-0.37,0.4-0.65,0.69-0.84s0.6-0.29,0.94-0.29c0.24,0,0.49,0.06,0.76,0.19
				l-0.58,1.61c-0.22-0.11-0.4-0.16-0.54-0.16c-0.29,0-0.53,0.18-0.73,0.53s-0.3,1.05-0.3,2.09l0.01,0.36v3.01h-1.85V188.78z"/>
			<path class="st2" d="M28.55,188.59c0.7,0,1.36,0.17,1.98,0.53c0.62,0.35,1.1,0.83,1.45,1.43s0.52,1.25,0.52,1.95
				c0,0.7-0.17,1.36-0.52,1.97c-0.35,0.61-0.82,1.09-1.43,1.43c-0.6,0.34-1.26,0.52-1.99,0.52c-1.07,0-1.98-0.38-2.73-1.14
				s-1.13-1.68-1.13-2.76c0-1.16,0.43-2.13,1.28-2.91C26.72,188.92,27.58,188.59,28.55,188.59z M28.58,190.34
				c-0.58,0-1.06,0.2-1.45,0.6s-0.58,0.92-0.58,1.55c0,0.65,0.19,1.17,0.57,1.57c0.38,0.4,0.86,0.6,1.45,0.6s1.07-0.2,1.46-0.61
				c0.39-0.41,0.58-0.93,0.58-1.57c0-0.64-0.19-1.16-0.57-1.56C29.66,190.54,29.17,190.34,28.58,190.34z"/>
			<path class="st2" d="M35.87,188.78v0.82c0.34-0.34,0.7-0.59,1.09-0.76c0.39-0.17,0.81-0.25,1.26-0.25c0.97,0,1.8,0.37,2.47,1.1
				c0.68,0.73,1.02,1.67,1.02,2.82c0,1.11-0.35,2.03-1.05,2.78s-1.53,1.12-2.5,1.12c-0.43,0-0.83-0.08-1.2-0.23
				c-0.37-0.15-0.74-0.4-1.1-0.75v3.51h-1.85v-10.16H35.87z M37.83,190.31c-0.59,0-1.08,0.2-1.46,0.6c-0.39,0.4-0.58,0.92-0.58,1.57
				c0,0.66,0.19,1.2,0.58,1.6c0.39,0.41,0.88,0.61,1.46,0.61c0.57,0,1.05-0.21,1.44-0.62c0.39-0.42,0.58-0.94,0.58-1.59
				c0-0.64-0.19-1.16-0.57-1.57C38.9,190.51,38.41,190.31,37.83,190.31z"/>
			<path class="st2" d="M48.71,188.78v0.82c0.34-0.34,0.7-0.59,1.09-0.76c0.39-0.17,0.81-0.25,1.26-0.25c0.97,0,1.8,0.37,2.47,1.1
				c0.68,0.73,1.02,1.67,1.02,2.82c0,1.11-0.35,2.03-1.05,2.78s-1.53,1.12-2.5,1.12c-0.43,0-0.83-0.08-1.2-0.23
				c-0.37-0.15-0.74-0.4-1.1-0.75v3.51h-1.85v-10.16H48.71z M50.68,190.31c-0.59,0-1.08,0.2-1.46,0.6c-0.39,0.4-0.58,0.92-0.58,1.57
				c0,0.66,0.19,1.2,0.58,1.6c0.39,0.41,0.88,0.61,1.46,0.61c0.57,0,1.05-0.21,1.44-0.62c0.39-0.42,0.58-0.94,0.58-1.59
				c0-0.64-0.19-1.16-0.57-1.57C51.74,190.51,51.26,190.31,50.68,190.31z"/>
			<path class="st2" d="M56.11,185.91h1.85v3.62c0.36-0.31,0.73-0.55,1.1-0.71s0.74-0.24,1.12-0.24c0.74,0,1.36,0.25,1.87,0.77
				c0.43,0.44,0.65,1.09,0.65,1.95v4.92h-1.84v-3.26c0-0.86-0.04-1.45-0.12-1.75c-0.08-0.31-0.22-0.53-0.42-0.68
				s-0.44-0.23-0.73-0.23c-0.38,0-0.7,0.12-0.97,0.38c-0.27,0.25-0.46,0.59-0.56,1.03c-0.05,0.22-0.08,0.73-0.08,1.53v2.99h-1.85
				V185.91z"/>
			<path class="st2" d="M63.68,188.78h1.91l1.93,4.67l2.13-4.67h1.91l-4.66,10.16h-1.93l1.53-3.28L63.68,188.78z"/>
			<path class="st2" d="M77.18,189.82l-1.16,1.16c-0.47-0.46-0.9-0.7-1.28-0.7c-0.21,0-0.37,0.04-0.49,0.13s-0.18,0.2-0.18,0.33
				c0,0.1,0.04,0.19,0.11,0.28c0.08,0.08,0.26,0.2,0.56,0.35l0.68,0.34c0.72,0.36,1.21,0.72,1.48,1.09s0.4,0.8,0.4,1.3
				c0,0.66-0.24,1.21-0.73,1.65c-0.49,0.44-1.14,0.66-1.95,0.66c-1.08,0-1.95-0.42-2.6-1.27l1.15-1.25
				c0.22,0.25,0.48,0.46,0.77,0.62s0.55,0.24,0.78,0.24c0.25,0,0.44-0.06,0.59-0.18c0.15-0.12,0.23-0.26,0.23-0.41
				c0-0.29-0.27-0.57-0.81-0.84L74.12,193c-1.2-0.61-1.8-1.37-1.8-2.28c0-0.59,0.23-1.09,0.68-1.51s1.03-0.62,1.74-0.62
				c0.48,0,0.94,0.11,1.36,0.32S76.88,189.42,77.18,189.82z"/>
			<path class="st2" d="M79.51,185.72c0.33,0,0.61,0.12,0.84,0.36c0.23,0.24,0.35,0.52,0.35,0.86c0,0.33-0.12,0.62-0.35,0.85
				c-0.23,0.24-0.51,0.35-0.83,0.35c-0.33,0-0.61-0.12-0.85-0.36s-0.35-0.53-0.35-0.87c0-0.33,0.12-0.61,0.35-0.84
				C78.91,185.83,79.19,185.72,79.51,185.72z M78.58,188.78h1.87v7.44h-1.87V188.78z"/>
			<path class="st2" d="M85.63,188.59c0.7,0,1.36,0.17,1.98,0.53c0.62,0.35,1.1,0.83,1.45,1.43s0.52,1.25,0.52,1.95
				c0,0.7-0.17,1.36-0.52,1.97c-0.35,0.61-0.82,1.09-1.43,1.43c-0.6,0.34-1.26,0.52-1.99,0.52c-1.07,0-1.98-0.38-2.73-1.14
				s-1.13-1.68-1.13-2.76c0-1.16,0.43-2.13,1.28-2.91C83.81,188.92,84.66,188.59,85.63,188.59z M85.67,190.34
				c-0.58,0-1.06,0.2-1.45,0.6s-0.58,0.92-0.58,1.55c0,0.65,0.19,1.17,0.57,1.57c0.38,0.4,0.86,0.6,1.45,0.6s1.07-0.2,1.46-0.61
				c0.39-0.41,0.58-0.93,0.58-1.57c0-0.64-0.19-1.16-0.57-1.56C86.75,190.54,86.26,190.34,85.67,190.34z"/>
			<path class="st2" d="M90.9,185.91h1.87v10.31H90.9V185.91z"/>
			<path class="st2" d="M97.95,188.59c0.7,0,1.36,0.17,1.98,0.53c0.62,0.35,1.1,0.83,1.45,1.43s0.52,1.25,0.52,1.95
				c0,0.7-0.17,1.36-0.52,1.97c-0.35,0.61-0.82,1.09-1.43,1.43c-0.6,0.34-1.26,0.52-1.99,0.52c-1.07,0-1.98-0.38-2.73-1.14
				s-1.13-1.68-1.13-2.76c0-1.16,0.43-2.13,1.28-2.91C96.12,188.92,96.98,188.59,97.95,188.59z M97.98,190.34
				c-0.58,0-1.06,0.2-1.45,0.6s-0.58,0.92-0.58,1.55c0,0.65,0.19,1.17,0.57,1.57c0.38,0.4,0.86,0.6,1.45,0.6s1.07-0.2,1.46-0.61
				c0.39-0.41,0.58-0.93,0.58-1.57c0-0.64-0.19-1.16-0.57-1.56C99.06,190.54,98.58,190.34,97.98,190.34z"/>
			<path class="st2" d="M108.92,188.78h1.86v6.37c0,1.26-0.25,2.18-0.76,2.78c-0.68,0.8-1.7,1.2-3.07,1.2
				c-0.73,0-1.34-0.09-1.84-0.27c-0.5-0.18-0.92-0.45-1.26-0.8c-0.34-0.35-0.59-0.78-0.76-1.29h2.06c0.18,0.21,0.42,0.37,0.7,0.47
				c0.29,0.11,0.63,0.16,1.02,0.16c0.5,0,0.9-0.08,1.21-0.23c0.31-0.16,0.52-0.36,0.65-0.6s0.19-0.67,0.19-1.27
				c-0.33,0.33-0.67,0.56-1.03,0.71s-0.77,0.22-1.22,0.22c-1,0-1.84-0.36-2.53-1.08c-0.69-0.72-1.03-1.63-1.03-2.73
				c0-1.18,0.36-2.13,1.09-2.84c0.66-0.65,1.45-0.97,2.37-0.97c0.43,0,0.83,0.08,1.21,0.24s0.76,0.42,1.15,0.78V188.78z
				 M106.98,190.33c-0.59,0-1.07,0.2-1.46,0.59c-0.38,0.39-0.57,0.89-0.57,1.49c0,0.62,0.2,1.13,0.59,1.52s0.88,0.59,1.48,0.59
				c0.58,0,1.06-0.19,1.43-0.58c0.38-0.39,0.56-0.9,0.56-1.52c0-0.62-0.19-1.12-0.57-1.51
				C108.07,190.52,107.58,190.33,106.98,190.33z"/>
			<path class="st2" d="M111.84,188.78h1.91l1.93,4.67l2.13-4.67h1.91l-4.66,10.16h-1.93l1.53-3.28L111.84,188.78z"/>
			<path class="st2" d="M125.12,185.72c0.33,0,0.61,0.12,0.84,0.36c0.23,0.24,0.35,0.52,0.35,0.86c0,0.33-0.12,0.62-0.35,0.85
				c-0.23,0.24-0.51,0.35-0.83,0.35c-0.33,0-0.61-0.12-0.85-0.36s-0.35-0.53-0.35-0.87c0-0.33,0.12-0.61,0.35-0.84
				C124.51,185.83,124.79,185.72,125.12,185.72z M124.18,188.78h1.87v7.44h-1.87V188.78z"/>
			<path class="st2" d="M127.75,188.78h1.87v0.76c0.42-0.36,0.81-0.6,1.15-0.74c0.34-0.14,0.69-0.21,1.05-0.21
				c0.74,0,1.36,0.26,1.88,0.77c0.43,0.44,0.65,1.08,0.65,1.94v4.92h-1.85v-3.26c0-0.89-0.04-1.48-0.12-1.77
				c-0.08-0.29-0.22-0.51-0.42-0.67c-0.2-0.15-0.44-0.23-0.73-0.23c-0.38,0-0.7,0.13-0.97,0.38s-0.46,0.6-0.56,1.05
				c-0.05,0.23-0.08,0.74-0.08,1.51v2.98h-1.87V188.78z"/>
			<path class="st2" d="M145.24,188.78h1.87v7.44h-1.87v-0.79c-0.36,0.35-0.73,0.6-1.1,0.75c-0.37,0.15-0.76,0.23-1.19,0.23
				c-0.96,0-1.79-0.37-2.49-1.12c-0.7-0.75-1.05-1.67-1.05-2.78c0-1.15,0.34-2.09,1.02-2.82c0.68-0.73,1.5-1.1,2.47-1.1
				c0.45,0,0.86,0.08,1.26,0.25c0.39,0.17,0.75,0.42,1.09,0.76V188.78z M143.28,190.31c-0.58,0-1.06,0.2-1.44,0.61
				c-0.38,0.41-0.57,0.93-0.57,1.57c0,0.64,0.19,1.17,0.58,1.59c0.39,0.41,0.87,0.62,1.43,0.62c0.59,0,1.07-0.2,1.46-0.61
				c0.39-0.41,0.58-0.94,0.58-1.6c0-0.65-0.19-1.17-0.58-1.57C144.36,190.51,143.87,190.31,143.28,190.31z"/>
			<path class="st2" d="M148.56,188.78h1.6v0.94c0.17-0.37,0.4-0.65,0.69-0.84s0.6-0.29,0.94-0.29c0.24,0,0.49,0.06,0.76,0.19
				l-0.58,1.61c-0.22-0.11-0.4-0.16-0.54-0.16c-0.29,0-0.53,0.18-0.73,0.53s-0.3,1.05-0.3,2.09l0.01,0.36v3.01h-1.85V188.78z"/>
			<path class="st2" d="M154.2,185.72c0.33,0,0.61,0.12,0.84,0.36c0.23,0.24,0.35,0.52,0.35,0.86c0,0.33-0.12,0.62-0.35,0.85
				c-0.23,0.24-0.51,0.35-0.83,0.35c-0.33,0-0.61-0.12-0.85-0.36s-0.35-0.53-0.35-0.87c0-0.33,0.12-0.61,0.35-0.84
				C153.59,185.83,153.87,185.72,154.2,185.72z M153.27,188.78h1.87v7.44h-1.87V188.78z"/>
			<path class="st2" d="M162.32,185.91h1.87v10.31h-1.87v-0.79c-0.36,0.35-0.73,0.6-1.1,0.75c-0.37,0.15-0.76,0.23-1.19,0.23
				c-0.96,0-1.79-0.37-2.49-1.12c-0.7-0.75-1.05-1.67-1.05-2.78c0-1.15,0.34-2.09,1.02-2.82c0.68-0.73,1.5-1.1,2.47-1.1
				c0.45,0,0.86,0.08,1.26,0.25c0.39,0.17,0.75,0.42,1.09,0.76V185.91z M160.35,190.31c-0.58,0-1.06,0.2-1.44,0.61
				c-0.38,0.41-0.57,0.93-0.57,1.57c0,0.64,0.19,1.17,0.58,1.59c0.39,0.41,0.87,0.62,1.43,0.62c0.59,0,1.07-0.2,1.46-0.61
				c0.39-0.41,0.58-0.94,0.58-1.6c0-0.65-0.19-1.17-0.58-1.57C161.43,190.51,160.94,190.31,160.35,190.31z"/>
			<path class="st2" d="M177.12,193.04h-6c0.09,0.53,0.32,0.95,0.69,1.26c0.38,0.31,0.86,0.47,1.44,0.47c0.7,0,1.3-0.24,1.8-0.73
				l1.57,0.74c-0.39,0.56-0.86,0.97-1.41,1.23s-1.2,0.4-1.95,0.4c-1.17,0-2.12-0.37-2.85-1.1c-0.73-0.74-1.1-1.66-1.1-2.76
				c0-1.13,0.37-2.08,1.1-2.83c0.73-0.75,1.65-1.12,2.75-1.12c1.17,0,2.12,0.38,2.86,1.12c0.73,0.75,1.1,1.74,1.1,2.97
				L177.12,193.04z M175.26,191.57c-0.12-0.42-0.37-0.75-0.73-1.01c-0.36-0.26-0.78-0.39-1.26-0.39c-0.52,0-0.98,0.15-1.37,0.44
				c-0.25,0.18-0.47,0.5-0.68,0.96H175.26z"/>
			<path class="st2" d="M178.63,188.78h1.87v0.76c0.42-0.36,0.81-0.6,1.15-0.74c0.34-0.14,0.7-0.21,1.05-0.21
				c0.74,0,1.36,0.26,1.88,0.77c0.43,0.44,0.65,1.08,0.65,1.94v4.92h-1.85v-3.26c0-0.89-0.04-1.48-0.12-1.77
				c-0.08-0.29-0.22-0.51-0.42-0.67c-0.2-0.15-0.44-0.23-0.73-0.23c-0.38,0-0.7,0.13-0.97,0.38c-0.27,0.25-0.46,0.6-0.56,1.05
				c-0.05,0.23-0.08,0.74-0.08,1.51v2.98h-1.87V188.78z"/>
			<path class="st2" d="M186.24,188.78h1.9l1.88,4.39l1.87-4.39h1.89l-3.16,7.44h-1.21L186.24,188.78z"/>
			<path class="st2" d="M195.6,185.72c0.33,0,0.61,0.12,0.84,0.36c0.23,0.24,0.35,0.52,0.35,0.86c0,0.33-0.12,0.62-0.35,0.85
				c-0.23,0.24-0.51,0.35-0.83,0.35c-0.33,0-0.62-0.12-0.85-0.36c-0.23-0.24-0.35-0.53-0.35-0.87c0-0.33,0.12-0.61,0.35-0.84
				S195.28,185.72,195.6,185.72z M194.67,188.78h1.87v7.44h-1.87V188.78z"/>
			<path class="st2" d="M197.79,188.78h1.6v0.94c0.17-0.37,0.4-0.65,0.69-0.84s0.6-0.29,0.94-0.29c0.24,0,0.49,0.06,0.76,0.19
				l-0.58,1.61c-0.22-0.11-0.4-0.16-0.54-0.16c-0.29,0-0.53,0.18-0.73,0.53c-0.2,0.36-0.3,1.05-0.3,2.09l0.01,0.36v3.01h-1.85
				V188.78z"/>
			<path class="st2" d="M206.2,188.59c0.7,0,1.36,0.17,1.98,0.53c0.62,0.35,1.1,0.83,1.45,1.43s0.52,1.25,0.52,1.95
				c0,0.7-0.17,1.36-0.52,1.97c-0.35,0.61-0.82,1.09-1.42,1.43c-0.6,0.34-1.26,0.52-1.99,0.52c-1.07,0-1.98-0.38-2.73-1.14
				c-0.75-0.76-1.13-1.68-1.13-2.76c0-1.16,0.43-2.13,1.28-2.91C204.37,188.92,205.23,188.59,206.2,188.59z M206.23,190.34
				c-0.58,0-1.06,0.2-1.45,0.6s-0.58,0.92-0.58,1.55c0,0.65,0.19,1.17,0.57,1.57c0.38,0.4,0.86,0.6,1.45,0.6
				c0.58,0,1.07-0.2,1.46-0.61c0.39-0.41,0.58-0.93,0.58-1.57c0-0.64-0.19-1.16-0.57-1.56
				C207.31,190.54,206.83,190.34,206.23,190.34z"/>
			<path class="st2" d="M211.67,188.78h1.87v0.76c0.42-0.36,0.81-0.6,1.15-0.74c0.34-0.14,0.7-0.21,1.05-0.21
				c0.74,0,1.36,0.26,1.88,0.77c0.43,0.44,0.65,1.08,0.65,1.94v4.92h-1.85v-3.26c0-0.89-0.04-1.48-0.12-1.77
				c-0.08-0.29-0.22-0.51-0.42-0.67c-0.2-0.15-0.44-0.23-0.73-0.23c-0.38,0-0.7,0.13-0.97,0.38s-0.46,0.6-0.56,1.05
				c-0.05,0.23-0.08,0.74-0.08,1.51v2.98h-1.87V188.78z"/>
			<path class="st2" d="M220.06,188.78h1.87v0.85c0.32-0.35,0.67-0.61,1.06-0.79c0.39-0.17,0.82-0.26,1.28-0.26
				c0.46,0,0.88,0.11,1.26,0.34c0.37,0.23,0.67,0.56,0.9,1c0.3-0.44,0.66-0.77,1.09-1c0.43-0.23,0.9-0.34,1.41-0.34
				c0.53,0,0.99,0.12,1.4,0.37s0.69,0.57,0.87,0.96s0.26,1.04,0.26,1.93v4.36h-1.88v-3.77c0-0.84-0.1-1.41-0.31-1.71
				c-0.21-0.3-0.52-0.45-0.94-0.45c-0.32,0-0.61,0.09-0.86,0.27c-0.25,0.18-0.44,0.43-0.56,0.75s-0.18,0.84-0.18,1.55v3.36h-1.88
				v-3.6c0-0.67-0.05-1.15-0.15-1.45c-0.1-0.3-0.25-0.52-0.44-0.67c-0.2-0.15-0.43-0.22-0.71-0.22c-0.31,0-0.59,0.09-0.85,0.28
				c-0.25,0.18-0.44,0.44-0.57,0.78c-0.13,0.33-0.19,0.86-0.19,1.57v3.31h-1.87V188.78z"/>
			<path class="st2" d="M240.68,193.04h-6c0.09,0.53,0.32,0.95,0.69,1.26c0.38,0.31,0.86,0.47,1.44,0.47c0.7,0,1.3-0.24,1.8-0.73
				l1.57,0.74c-0.39,0.56-0.86,0.97-1.41,1.23s-1.2,0.4-1.95,0.4c-1.17,0-2.12-0.37-2.85-1.1c-0.73-0.74-1.1-1.66-1.1-2.76
				c0-1.13,0.37-2.08,1.1-2.83c0.73-0.75,1.65-1.12,2.75-1.12c1.17,0,2.12,0.38,2.86,1.12c0.73,0.75,1.1,1.74,1.1,2.97
				L240.68,193.04z M238.82,191.57c-0.12-0.42-0.37-0.75-0.73-1.01c-0.36-0.26-0.78-0.39-1.26-0.39c-0.52,0-0.98,0.15-1.37,0.44
				c-0.25,0.18-0.47,0.5-0.68,0.96H238.82z"/>
			<path class="st2" d="M242.19,188.78h1.87v0.76c0.42-0.36,0.81-0.6,1.15-0.74c0.34-0.14,0.7-0.21,1.05-0.21
				c0.74,0,1.36,0.26,1.88,0.77c0.43,0.44,0.65,1.08,0.65,1.94v4.92h-1.85v-3.26c0-0.89-0.04-1.48-0.12-1.77
				c-0.08-0.29-0.22-0.51-0.42-0.67c-0.2-0.15-0.44-0.23-0.73-0.23c-0.38,0-0.7,0.13-0.97,0.38s-0.46,0.6-0.56,1.05
				c-0.05,0.23-0.08,0.74-0.08,1.51v2.98h-1.87V188.78z"/>
			<path class="st2" d="M250.82,186.04h1.87v2.74h1.11v1.61h-1.11v5.83h-1.87v-5.83h-0.96v-1.61h0.96V186.04z"/>
			<path class="st2" d="M259.35,189.82l-1.16,1.16c-0.47-0.46-0.9-0.7-1.28-0.7c-0.21,0-0.37,0.04-0.49,0.13s-0.18,0.2-0.18,0.33
				c0,0.1,0.04,0.19,0.11,0.28c0.07,0.08,0.26,0.2,0.56,0.35l0.68,0.34c0.72,0.36,1.21,0.72,1.48,1.09s0.4,0.8,0.4,1.3
				c0,0.66-0.24,1.21-0.73,1.65c-0.48,0.44-1.14,0.66-1.95,0.66c-1.08,0-1.95-0.42-2.6-1.27l1.15-1.25
				c0.22,0.25,0.47,0.46,0.77,0.62c0.29,0.16,0.55,0.24,0.78,0.24c0.25,0,0.44-0.06,0.59-0.18c0.15-0.12,0.23-0.26,0.23-0.41
				c0-0.29-0.27-0.57-0.81-0.84l-0.63-0.31c-1.2-0.61-1.8-1.37-1.8-2.28c0-0.59,0.23-1.09,0.68-1.51c0.45-0.42,1.03-0.62,1.74-0.62
				c0.48,0,0.94,0.11,1.36,0.32C258.69,189.12,259.05,189.42,259.35,189.82z"/>
		</g>
		<line class="st1" x1="175.5" y1="422" x2="175.5" y2="62"/>
		<line class="st1" x1="344.17" y1="202" x2="-15.83" y2="202"/>
		<g>
			<path class="st3" d="M10.68,155.28h5.2v2.38c0.89-0.98,1.88-1.71,2.96-2.19c1.09-0.48,2.27-0.72,3.55-0.72
				c1.3,0,2.46,0.32,3.51,0.95c1.04,0.63,1.88,1.56,2.52,2.78c0.83-1.22,1.84-2.15,3.04-2.78s2.51-0.95,3.94-0.95
				c1.47,0,2.77,0.34,3.89,1.03s1.92,1.58,2.41,2.69s0.73,2.9,0.73,5.39V176h-5.24v-10.51c0-2.35-0.29-3.94-0.88-4.77
				c-0.58-0.83-1.46-1.25-2.63-1.25c-0.89,0-1.69,0.25-2.39,0.76c-0.71,0.51-1.23,1.21-1.57,2.1c-0.34,0.89-0.51,2.33-0.51,4.31V176
				h-5.24v-10.04c0-1.85-0.14-3.2-0.41-4.03c-0.27-0.83-0.68-1.45-1.23-1.86s-1.21-0.61-1.99-0.61c-0.87,0-1.65,0.26-2.36,0.77
				c-0.71,0.51-1.23,1.23-1.58,2.16s-0.52,2.39-0.52,4.38V176h-5.2V155.28z"/>
			<path class="st3" d="M69.42,167.15h-16.7c0.24,1.47,0.89,2.64,1.93,3.51c1.05,0.87,2.38,1.3,4.01,1.3c1.94,0,3.61-0.68,5.01-2.04
				l4.38,2.06c-1.09,1.55-2.4,2.69-3.92,3.44c-1.52,0.74-3.33,1.11-5.43,1.11c-3.25,0-5.9-1.02-7.94-3.08s-3.07-4.62-3.07-7.7
				c0-3.16,1.02-5.79,3.06-7.87c2.04-2.09,4.59-3.13,7.67-3.13c3.26,0,5.92,1.04,7.96,3.13s3.07,4.85,3.07,8.27L69.42,167.15z
				 M64.22,163.05c-0.34-1.16-1.02-2.09-2.03-2.82c-1.01-0.72-2.18-1.09-3.52-1.09c-1.45,0-2.72,0.41-3.81,1.22
				c-0.69,0.51-1.32,1.4-1.91,2.69H64.22z"/>
			<path class="st3" d="M74.34,147.29h5.2V176h-5.2V147.29z"/>
			<path class="st3" d="M100.84,155.28h5.2V176h-5.2v-2.19c-1.01,0.96-2.03,1.66-3.05,2.09c-1.02,0.42-2.13,0.64-3.32,0.64
				c-2.68,0-4.99-1.04-6.94-3.11c-1.95-2.08-2.93-4.66-2.93-7.74c0-3.2,0.94-5.82,2.83-7.86c1.89-2.04,4.18-3.07,6.89-3.07
				c1.24,0,2.41,0.23,3.5,0.7c1.09,0.47,2.1,1.17,3.02,2.11V155.28z M95.38,159.55c-1.61,0-2.94,0.57-4,1.7
				c-1.06,1.14-1.59,2.59-1.59,4.37c0,1.79,0.54,3.26,1.62,4.42s2.41,1.73,4,1.73c1.63,0,2.99-0.57,4.06-1.7s1.61-2.62,1.61-4.47
				c0-1.8-0.54-3.26-1.61-4.38S97.02,159.55,95.38,159.55z"/>
			<path class="st3" d="M112.58,155.28h5.2v2.12c1.18-0.99,2.25-1.68,3.2-2.07c0.96-0.39,1.94-0.58,2.94-0.58
				c2.05,0,3.8,0.72,5.23,2.15c1.2,1.22,1.81,3.02,1.81,5.41V176h-5.14v-9.07c0-2.47-0.11-4.11-0.33-4.93
				c-0.22-0.81-0.61-1.43-1.16-1.85c-0.55-0.42-1.23-0.64-2.04-0.64c-1.05,0-1.95,0.35-2.71,1.06c-0.75,0.7-1.28,1.68-1.57,2.92
				c-0.15,0.65-0.23,2.05-0.23,4.2V176h-5.2V155.28z"/>
			<path class="st3" d="M152.57,147.29h5.2V176h-5.2v-2.19c-1.01,0.96-2.03,1.66-3.05,2.09c-1.02,0.42-2.13,0.64-3.32,0.64
				c-2.68,0-4.99-1.04-6.94-3.11c-1.95-2.08-2.93-4.66-2.93-7.74c0-3.2,0.94-5.82,2.83-7.86c1.89-2.04,4.18-3.07,6.89-3.07
				c1.24,0,2.41,0.23,3.5,0.7c1.09,0.47,2.1,1.17,3.03,2.11V147.29z M147.1,159.55c-1.61,0-2.94,0.57-4,1.7
				c-1.06,1.14-1.59,2.59-1.59,4.37c0,1.79,0.54,3.26,1.62,4.42c1.08,1.16,2.41,1.73,4,1.73c1.63,0,2.99-0.57,4.06-1.7
				c1.08-1.14,1.61-2.62,1.61-4.47c0-1.8-0.54-3.26-1.61-4.38C150.11,160.11,148.75,159.55,147.1,159.55z"/>
			<path class="st3" d="M163.09,155.28h4.46v2.61c0.48-1.03,1.12-1.81,1.92-2.34c0.8-0.53,1.68-0.8,2.63-0.8
				c0.67,0,1.38,0.18,2.11,0.53l-1.62,4.48c-0.61-0.3-1.11-0.46-1.5-0.46c-0.8,0-1.48,0.5-2.03,1.49c-0.55,0.99-0.83,2.93-0.83,5.83
				l0.02,1.01V176h-5.16V155.28z"/>
			<path class="st3" d="M180.1,146.75c0.91,0,1.69,0.33,2.34,0.99s0.98,1.46,0.98,2.4c0,0.93-0.32,1.72-0.97,2.37
				s-1.42,0.98-2.32,0.98c-0.92,0-1.71-0.33-2.36-1c-0.65-0.67-0.98-1.48-0.98-2.43c0-0.91,0.32-1.69,0.97-2.34
				S179.18,146.75,180.1,146.75z M177.5,155.28h5.2V176h-5.2V155.28z"/>
			<path class="st3" d="M200.33,147.29h5.2V176h-5.2V147.29z"/>
			<path class="st3" d="M226.83,155.28h5.2V176h-5.2v-2.19c-1.01,0.96-2.03,1.66-3.05,2.09c-1.02,0.42-2.13,0.64-3.32,0.64
				c-2.68,0-4.99-1.04-6.94-3.11c-1.95-2.08-2.93-4.66-2.93-7.74c0-3.2,0.94-5.82,2.83-7.86s4.18-3.07,6.89-3.07
				c1.24,0,2.41,0.23,3.5,0.7c1.09,0.47,2.1,1.17,3.03,2.11V155.28z M221.37,159.55c-1.61,0-2.94,0.57-4,1.7
				c-1.06,1.14-1.59,2.59-1.59,4.37c0,1.79,0.54,3.26,1.62,4.42c1.08,1.16,2.41,1.73,4,1.73c1.63,0,2.99-0.57,4.06-1.7
				c1.08-1.14,1.61-2.62,1.61-4.47c0-1.8-0.54-3.26-1.61-4.38C224.37,160.11,223.01,159.55,221.37,159.55z"/>
			<path class="st3" d="M243.74,147.29v10.28c0.94-0.94,1.95-1.64,3.05-2.11c1.09-0.47,2.26-0.7,3.5-0.7c2.7,0,5,1.02,6.89,3.07
				s2.84,4.67,2.84,7.86c0,3.08-0.98,5.67-2.93,7.74c-1.96,2.08-4.27,3.11-6.95,3.11c-1.19,0-2.3-0.21-3.33-0.64
				c-1.03-0.43-2.05-1.12-3.07-2.09V176h-5.16v-28.72H243.74z M249.2,159.55c-1.64,0-3,0.56-4.08,1.68s-1.62,2.58-1.62,4.38
				c0,1.84,0.54,3.33,1.62,4.47s2.44,1.7,4.08,1.7c1.59,0,2.92-0.58,4.01-1.73c1.08-1.16,1.63-2.63,1.63-4.42
				c0-1.78-0.53-3.23-1.6-4.37C252.17,160.12,250.83,159.55,249.2,159.55z"/>
		</g>
	</g>
</g>
<g id="_x22_crop_physio..._x22_">
</g>
<g id="graphic">
	<g>
		<line class="st4" x1="270.81" y1="175.25" x2="342.81" y2="175.25"/>
		<path class="st5" d="M333.77,168.72c-10.71-11.11,0-16.22,0-16.22v-5.18c0-5.1-4.14-9.24-9.24-9.24c-5.1,0-9.24,4.14-9.24,9.24
			v20.41v7.51"/>
		<path class="st5" d="M333.33,152.35c0,0,10.71,5.11,0,16.22"/>
		<line class="st5" x1="307.75" y1="160.47" x2="315.3" y2="167.73"/>
		<line class="st5" x1="315.3" y1="157.72" x2="322.15" y2="150.83"/>
		<polyline class="st5" points="277.91,175.25 284.17,180.46 292.31,180.46 294.81,175.25 302.74,175.25 302.74,180.46 
			296.48,183.59 292.93,184.64 292.51,189.65 289.44,192.15 282.4,190.06 282.85,187.59 284.17,180.46 		"/>
		<line class="st5" x1="282.85" y1="187.59" x2="270.81" y2="190.27"/>
		<line class="st5" x1="292.31" y1="180.46" x2="296.48" y2="183.59"/>
		<polyline class="st5" points="302.74,180.46 309.21,183.59 315.3,182.03 321.31,175.25 329.45,183.59 334.88,182.03 
			336.55,175.25 		"/>
		<line class="st5" x1="334.88" y1="182.03" x2="342.81" y2="191.52"/>
		<polyline class="st5" points="329.45,183.59 324.53,184.64 317.56,194.24 312.55,195.49 297.73,194.45 292.51,189.65 		"/>
		<line class="st5" x1="315.3" y1="182.03" x2="322.15" y2="188.93"/>
		<polyline class="st5" points="319.65,191.36 324.53,192.98 328.2,191.52 334.88,200.71 338.85,199.66 		"/>
		<line class="st5" x1="334.88" y1="200.71" x2="329.45" y2="207.18"/>
		<polyline class="st5" points="324.53,192.98 324.53,198.83 319.65,203.94 324.53,208.22 		"/>
		<path class="st5" d="M319.65,203.94"/>
		<polyline class="st5" points="296.48,203.94 289.44,202.17 285.24,201 278.74,199.19 282.4,190.06 		"/>
		<line class="st5" x1="285.24" y1="201" x2="279.84" y2="206.4"/>
		<polyline class="st5" points="309.21,183.59 307.75,186.78 311.52,190.06 311.52,195.49 311.52,199.04 307.75,203.94 
			302.74,203.94 296.48,203.94 294.4,197.99 297.73,194.45 		"/>
		<line class="st5" x1="319.65" y1="203.94" x2="309.51" y2="201.66"/>
		<g>
			<g>
				<path class="st6" d="M274.57,153.26l5.4-3.06c0.33-0.19,0.76-0.07,0.94,0.26l0,0c0.19,0.33,0.07,0.76-0.26,0.94l-5.4,3.06
					c-0.33,0.19-0.76,0.07-0.94-0.26v0C274.12,153.87,274.23,153.45,274.57,153.26z"/>
			</g>
			<g>
				<path class="st6" d="M272.74,144.8l6.21,0.05c0.38,0,0.69,0.32,0.69,0.7l0,0c0,0.38-0.32,0.69-0.7,0.69l-6.21-0.05
					c-0.38,0-0.69-0.32-0.69-0.7l0,0C272.05,145.1,272.36,144.8,272.74,144.8z"/>
			</g>
			<g>
				<path class="st6" d="M275.39,136.56l5.35,3.15c0.33,0.19,0.44,0.62,0.25,0.95v0c-0.19,0.33-0.62,0.44-0.95,0.25l-5.35-3.15
					c-0.33-0.19-0.44-0.62-0.25-0.95v0C274.64,136.48,275.06,136.37,275.39,136.56z"/>
			</g>
			<g>
				<path class="st6" d="M281.81,130.75l3.06,5.4c0.19,0.33,0.07,0.76-0.26,0.94l0,0c-0.33,0.19-0.76,0.07-0.94-0.26l-3.06-5.4
					c-0.19-0.33-0.07-0.76,0.26-0.94l0,0C281.2,130.3,281.62,130.42,281.81,130.75z"/>
			</g>
			<g>
				<path class="st6" d="M290.27,128.93l-0.05,6.21c0,0.38-0.32,0.69-0.7,0.69l0,0c-0.38,0-0.69-0.32-0.69-0.7l0.05-6.21
					c0-0.38,0.32-0.69,0.7-0.69l0,0C289.96,128.23,290.27,128.54,290.27,128.93z"/>
			</g>
			<g>
				<path class="st6" d="M298.51,131.58l-3.15,5.35c-0.19,0.33-0.62,0.44-0.95,0.25l0,0c-0.33-0.19-0.44-0.62-0.25-0.95l3.15-5.35
					c0.19-0.33,0.62-0.44,0.95-0.25l0,0C298.59,130.82,298.7,131.25,298.51,131.58z"/>
			</g>
			<g>
				<path class="st6" d="M304.32,137.99l-5.4,3.06c-0.33,0.19-0.76,0.07-0.94-0.26l0,0c-0.19-0.33-0.07-0.76,0.26-0.94l5.4-3.06
					c0.33-0.19,0.76-0.07,0.94,0.26v0C304.77,137.38,304.65,137.8,304.32,137.99z"/>
			</g>
			<g>
				<path class="st6" d="M306.14,146.45l-6.21-0.05c-0.38,0-0.69-0.32-0.69-0.7l0,0c0-0.38,0.32-0.69,0.7-0.69l6.21,0.05
					c0.38,0,0.69,0.32,0.69,0.7l0,0C306.84,146.15,306.52,146.46,306.14,146.45z"/>
			</g>
			<g>
				<path class="st6" d="M303.49,154.69l-5.35-3.15c-0.33-0.19-0.44-0.62-0.25-0.95v0c0.19-0.33,0.62-0.44,0.95-0.25l5.35,3.15
					c0.33,0.19,0.44,0.62,0.25,0.95v0C304.24,154.78,303.82,154.89,303.49,154.69z"/>
			</g>
			<g>
				<path class="st6" d="M297.07,160.5l-3.06-5.4c-0.19-0.33-0.07-0.76,0.26-0.94l0,0c0.33-0.19,0.76-0.07,0.94,0.26l3.06,5.4
					c0.19,0.33,0.07,0.76-0.26,0.94l0,0C297.69,160.95,297.26,160.83,297.07,160.5z"/>
			</g>
			<g>
				<path class="st6" d="M288.61,162.32l0.05-6.21c0-0.38,0.32-0.69,0.7-0.69l0,0c0.38,0,0.69,0.32,0.69,0.7l-0.05,6.21
					c0,0.38-0.32,0.69-0.7,0.69l0,0C288.92,163.02,288.61,162.71,288.61,162.32z"/>
			</g>
			<g>
				<path class="st6" d="M280.38,159.67l3.15-5.35c0.19-0.33,0.62-0.44,0.95-0.25l0,0c0.33,0.19,0.44,0.62,0.25,0.95l-3.15,5.35
					c-0.19,0.33-0.62,0.44-0.95,0.25l0,0C280.29,160.43,280.18,160,280.38,159.67z"/>
			</g>
		</g>
		<g>
			<circle class="st4" cx="289.44" cy="145.63" r="7.04"/>
		</g>
	</g>
	<g>
	</g>
	<g>
	</g>
	<g>
	</g>
	<g>
	</g>
	<g>
	</g>
	<g>
	</g>
</g>
</svg>
