<?xml version="1.0" encoding="utf-8"?>
<!-- Generator: Adobe Illustrator 27.7.0, SVG Export Plug-In . SVG Version: 6.00 Build 0)  -->
<svg version="1.1" xmlns="http://www.w3.org/2000/svg" xmlns:xlink="http://www.w3.org/1999/xlink" x="0px" y="0px"
	 viewBox="0 0 360 90" style="enable-background:new 0 0 360 90;" xml:space="preserve">
<style type="text/css">
	.st0{fill:#791232;}
	.st1{fill:none;}
	.st2{fill:#F3991F;}
	.st3{fill:#FFFFFF;}
	.st4{fill:none;stroke:#F3991F;stroke-width:1.2831;stroke-miterlimit:10;}
	.st5{fill:none;stroke:#F3991F;stroke-width:1.1474;stroke-miterlimit:10;}
	.st6{fill:#F3991F;stroke:#F3991F;stroke-width:0.0203;stroke-miterlimit:10;}
</style>
<g id="Background">
	<rect class="st0" width="360" height="90"/>
</g>
<g id="_x22_melandri_x22_">
	<g>
		<g>
			<polygon class="st1" points="14.93,108.96 264.25,108.96 264.25,20.41 14.91,20.41 			"/>
			<path class="st2" d="M23.14,63.9l-1.55,0.85c-0.29-0.31-0.58-0.52-0.87-0.64s-0.62-0.18-1-0.18c-0.7,0-1.26,0.21-1.69,0.62
				c-0.43,0.42-0.65,0.95-0.65,1.6c0,0.63,0.21,1.15,0.62,1.55c0.42,0.4,0.96,0.6,1.64,0.6c0.84,0,1.49-0.28,1.95-0.85l1.47,1.01
				c-0.8,1.04-1.92,1.56-3.38,1.56c-1.31,0-2.33-0.39-3.07-1.16s-1.11-1.68-1.11-2.72c0-0.72,0.18-1.38,0.54-1.99
				s0.86-1.08,1.51-1.43s1.37-0.52,2.16-0.52c0.74,0,1.4,0.15,1.99,0.44S22.77,63.36,23.14,63.9z"/>
			<path class="st2" d="M24.38,62.4h1.6v0.94c0.17-0.37,0.4-0.65,0.69-0.84s0.6-0.29,0.94-0.29c0.24,0,0.49,0.06,0.76,0.19
				l-0.58,1.61c-0.22-0.11-0.4-0.16-0.54-0.16c-0.29,0-0.53,0.18-0.73,0.53s-0.3,1.05-0.3,2.09l0.01,0.36v3.01h-1.85V62.4z"/>
			<path class="st2" d="M32.79,62.21c0.7,0,1.36,0.18,1.98,0.53s1.1,0.83,1.45,1.43s0.52,1.25,0.52,1.95c0,0.7-0.17,1.36-0.52,1.97
				s-0.82,1.09-1.43,1.43s-1.26,0.52-1.99,0.52c-1.07,0-1.98-0.38-2.73-1.14s-1.13-1.68-1.13-2.77c0-1.16,0.43-2.13,1.28-2.91
				C30.96,62.55,31.82,62.21,32.79,62.21z M32.82,63.97c-0.58,0-1.06,0.2-1.45,0.6s-0.58,0.92-0.58,1.55c0,0.65,0.19,1.17,0.57,1.57
				c0.38,0.4,0.86,0.6,1.45,0.6s1.07-0.2,1.46-0.61s0.58-0.93,0.58-1.57s-0.19-1.16-0.57-1.56S33.42,63.97,32.82,63.97z"/>
			<path class="st2" d="M40.11,62.4v0.82c0.34-0.34,0.7-0.59,1.09-0.76s0.81-0.25,1.26-0.25c0.97,0,1.8,0.37,2.47,1.1
				s1.02,1.67,1.02,2.82c0,1.11-0.35,2.03-1.05,2.78s-1.53,1.12-2.5,1.12c-0.43,0-0.83-0.08-1.2-0.23s-0.74-0.4-1.1-0.75v3.51h-1.85
				V62.4H40.11z M42.08,63.93c-0.59,0-1.08,0.2-1.46,0.6s-0.58,0.93-0.58,1.57c0,0.66,0.19,1.2,0.58,1.6s0.88,0.61,1.46,0.61
				c0.57,0,1.05-0.21,1.44-0.62s0.58-0.94,0.58-1.59c0-0.64-0.19-1.16-0.57-1.57S42.66,63.93,42.08,63.93z"/>
			<path class="st2" d="M52.96,62.4v0.82c0.34-0.34,0.7-0.59,1.09-0.76s0.81-0.25,1.26-0.25c0.97,0,1.8,0.37,2.47,1.1
				s1.02,1.67,1.02,2.82c0,1.11-0.35,2.03-1.05,2.78s-1.53,1.12-2.5,1.12c-0.43,0-0.83-0.08-1.2-0.23s-0.74-0.4-1.1-0.75v3.51h-1.85
				V62.4H52.96z M54.92,63.93c-0.59,0-1.08,0.2-1.46,0.6s-0.58,0.93-0.58,1.57c0,0.66,0.19,1.2,0.58,1.6s0.88,0.61,1.46,0.61
				c0.57,0,1.05-0.21,1.44-0.62s0.58-0.94,0.58-1.59c0-0.64-0.19-1.16-0.57-1.57S55.5,63.93,54.92,63.93z"/>
			<path class="st2" d="M60.36,59.53h1.85v3.62c0.36-0.31,0.73-0.55,1.1-0.71s0.74-0.24,1.12-0.24c0.74,0,1.36,0.26,1.87,0.77
				c0.43,0.44,0.65,1.09,0.65,1.95v4.92h-1.84v-3.26c0-0.86-0.04-1.44-0.12-1.75s-0.22-0.53-0.42-0.68s-0.44-0.23-0.73-0.23
				c-0.38,0-0.7,0.13-0.97,0.38s-0.46,0.59-0.56,1.03c-0.05,0.22-0.08,0.73-0.08,1.53v2.99h-1.85V59.53z"/>
			<path class="st2" d="M67.93,62.4h1.91l1.93,4.67l2.13-4.67h1.91l-4.66,10.16h-1.93l1.53-3.28L67.93,62.4z"/>
			<path class="st2" d="M81.42,63.44l-1.16,1.16c-0.47-0.46-0.9-0.7-1.28-0.7c-0.21,0-0.37,0.04-0.49,0.13s-0.18,0.2-0.18,0.33
				c0,0.1,0.04,0.19,0.11,0.28s0.26,0.2,0.56,0.35l0.68,0.34c0.72,0.36,1.21,0.72,1.48,1.09s0.4,0.8,0.4,1.3
				c0,0.66-0.24,1.21-0.73,1.65s-1.14,0.66-1.95,0.66c-1.08,0-1.95-0.42-2.6-1.27l1.15-1.25c0.22,0.26,0.48,0.46,0.77,0.62
				s0.55,0.24,0.78,0.24c0.25,0,0.44-0.06,0.59-0.18s0.23-0.26,0.23-0.41c0-0.29-0.27-0.57-0.81-0.84l-0.63-0.31
				c-1.2-0.61-1.8-1.36-1.8-2.28c0-0.59,0.23-1.09,0.68-1.51s1.03-0.63,1.74-0.63c0.48,0,0.94,0.11,1.36,0.32
				S81.13,63.04,81.42,63.44z"/>
			<path class="st2" d="M83.76,59.34c0.33,0,0.61,0.12,0.84,0.36s0.35,0.52,0.35,0.86c0,0.33-0.12,0.62-0.35,0.85
				s-0.51,0.35-0.83,0.35c-0.33,0-0.61-0.12-0.85-0.36s-0.35-0.53-0.35-0.87c0-0.33,0.12-0.61,0.35-0.84
				C83.15,59.45,83.43,59.34,83.76,59.34z M82.83,62.4h1.87v7.44h-1.87V62.4z"/>
			<path class="st2" d="M89.88,62.21c0.7,0,1.36,0.18,1.98,0.53s1.1,0.83,1.45,1.43s0.52,1.25,0.52,1.95c0,0.7-0.17,1.36-0.52,1.97
				s-0.82,1.09-1.43,1.43s-1.26,0.52-1.99,0.52c-1.07,0-1.98-0.38-2.73-1.14s-1.13-1.68-1.13-2.77c0-1.16,0.43-2.13,1.28-2.91
				C88.05,62.55,88.91,62.21,89.88,62.21z M89.91,63.97c-0.58,0-1.06,0.2-1.45,0.6s-0.58,0.92-0.58,1.55c0,0.65,0.19,1.17,0.57,1.57
				c0.38,0.4,0.86,0.6,1.45,0.6s1.07-0.2,1.46-0.61s0.58-0.93,0.58-1.57s-0.19-1.16-0.57-1.56S90.5,63.97,89.91,63.97z"/>
			<path class="st2" d="M95.14,59.53h1.87v10.31h-1.87V59.53z"/>
			<path class="st2" d="M102.2,62.21c0.7,0,1.36,0.18,1.98,0.53s1.1,0.83,1.45,1.43s0.52,1.25,0.52,1.95c0,0.7-0.17,1.36-0.52,1.97
				s-0.82,1.09-1.43,1.43s-1.26,0.52-1.99,0.52c-1.07,0-1.98-0.38-2.73-1.14s-1.13-1.68-1.13-2.77c0-1.16,0.43-2.13,1.28-2.91
				C100.37,62.55,101.23,62.21,102.2,62.21z M102.23,63.97c-0.58,0-1.06,0.2-1.45,0.6s-0.58,0.92-0.58,1.55
				c0,0.65,0.19,1.17,0.57,1.57c0.38,0.4,0.86,0.6,1.45,0.6s1.07-0.2,1.46-0.61s0.58-0.93,0.58-1.57s-0.19-1.16-0.57-1.56
				S102.82,63.97,102.23,63.97z"/>
			<path class="st2" d="M113.16,62.4h1.86v6.37c0,1.26-0.25,2.18-0.76,2.78c-0.68,0.8-1.7,1.2-3.07,1.2c-0.73,0-1.34-0.09-1.84-0.27
				s-0.92-0.45-1.26-0.8s-0.59-0.78-0.76-1.29h2.06c0.18,0.21,0.42,0.37,0.7,0.48s0.63,0.16,1.02,0.16c0.5,0,0.9-0.08,1.21-0.23
				s0.52-0.36,0.65-0.6s0.19-0.67,0.19-1.27c-0.33,0.33-0.67,0.56-1.03,0.71s-0.77,0.22-1.22,0.22c-1,0-1.84-0.36-2.53-1.08
				s-1.03-1.63-1.03-2.73c0-1.18,0.36-2.13,1.09-2.84c0.66-0.65,1.45-0.97,2.37-0.97c0.43,0,0.83,0.08,1.21,0.24
				s0.76,0.42,1.15,0.78V62.4z M111.23,63.95c-0.59,0-1.07,0.2-1.46,0.59s-0.57,0.89-0.57,1.49c0,0.62,0.2,1.13,0.59,1.52
				s0.88,0.59,1.48,0.59c0.58,0,1.06-0.19,1.43-0.58s0.56-0.9,0.56-1.52c0-0.62-0.19-1.12-0.57-1.51S111.83,63.95,111.23,63.95z"/>
			<path class="st2" d="M116.08,62.4h1.91l1.93,4.67l2.13-4.67h1.91l-4.66,10.16h-1.93l1.53-3.28L116.08,62.4z"/>
			<path class="st2" d="M129.36,59.34c0.33,0,0.61,0.12,0.84,0.36s0.35,0.52,0.35,0.86c0,0.33-0.12,0.62-0.35,0.85
				s-0.51,0.35-0.83,0.35c-0.33,0-0.61-0.12-0.85-0.36s-0.35-0.53-0.35-0.87c0-0.33,0.12-0.61,0.35-0.84
				C128.76,59.45,129.04,59.34,129.36,59.34z M128.43,62.4h1.87v7.44h-1.87V62.4z"/>
			<path class="st2" d="M131.99,62.4h1.87v0.76c0.42-0.36,0.81-0.6,1.15-0.74c0.34-0.14,0.69-0.21,1.05-0.21
				c0.74,0,1.36,0.26,1.88,0.77c0.43,0.44,0.65,1.08,0.65,1.94v4.92h-1.85v-3.26c0-0.89-0.04-1.48-0.12-1.77s-0.22-0.51-0.42-0.67
				c-0.2-0.15-0.44-0.23-0.73-0.23c-0.38,0-0.7,0.13-0.97,0.38c-0.27,0.25-0.46,0.6-0.56,1.05c-0.05,0.23-0.08,0.73-0.08,1.51v2.98
				h-1.87V62.4z"/>
			<path class="st2" d="M149.49,62.4h1.87v7.44h-1.87v-0.79c-0.36,0.35-0.73,0.6-1.1,0.75c-0.37,0.15-0.76,0.23-1.19,0.23
				c-0.96,0-1.79-0.37-2.49-1.12c-0.7-0.75-1.05-1.67-1.05-2.78c0-1.15,0.34-2.09,1.02-2.82s1.5-1.1,2.47-1.1
				c0.45,0,0.86,0.08,1.26,0.25c0.39,0.17,0.75,0.42,1.09,0.76V62.4z M147.52,63.93c-0.58,0-1.06,0.2-1.44,0.61
				s-0.57,0.93-0.57,1.57c0,0.64,0.19,1.17,0.58,1.59c0.39,0.41,0.87,0.62,1.43,0.62c0.59,0,1.07-0.2,1.46-0.61
				c0.39-0.41,0.58-0.94,0.58-1.6c0-0.65-0.19-1.17-0.58-1.57C148.6,64.13,148.11,63.93,147.52,63.93z"/>
			<path class="st2" d="M152.8,62.4h1.6v0.94c0.17-0.37,0.4-0.65,0.69-0.84s0.6-0.29,0.94-0.29c0.24,0,0.49,0.06,0.76,0.19
				l-0.58,1.61c-0.22-0.11-0.4-0.16-0.54-0.16c-0.29,0-0.53,0.18-0.73,0.53s-0.3,1.05-0.3,2.09l0.01,0.36v3.01h-1.85V62.4z"/>
			<path class="st2" d="M158.44,59.34c0.33,0,0.61,0.12,0.84,0.36s0.35,0.52,0.35,0.86c0,0.33-0.12,0.62-0.35,0.85
				s-0.51,0.35-0.83,0.35c-0.33,0-0.61-0.12-0.85-0.36s-0.35-0.53-0.35-0.87c0-0.33,0.12-0.61,0.35-0.84
				C157.84,59.45,158.12,59.34,158.44,59.34z M157.51,62.4h1.87v7.44h-1.87V62.4z"/>
			<path class="st2" d="M166.56,59.53h1.87v10.31h-1.87v-0.79c-0.36,0.35-0.73,0.6-1.1,0.75c-0.37,0.15-0.76,0.23-1.19,0.23
				c-0.96,0-1.79-0.37-2.49-1.12c-0.7-0.75-1.05-1.67-1.05-2.78c0-1.15,0.34-2.09,1.02-2.82s1.5-1.1,2.47-1.1
				c0.45,0,0.86,0.08,1.26,0.25c0.39,0.17,0.75,0.42,1.09,0.76V59.53z M164.6,63.93c-0.58,0-1.06,0.2-1.44,0.61
				s-0.57,0.93-0.57,1.57c0,0.64,0.19,1.17,0.58,1.59c0.39,0.41,0.87,0.62,1.43,0.62c0.59,0,1.07-0.2,1.46-0.61
				c0.39-0.41,0.58-0.94,0.58-1.6c0-0.65-0.19-1.17-0.58-1.57C165.68,64.13,165.19,63.93,164.6,63.93z"/>
			<path class="st2" d="M181.37,66.66h-6c0.09,0.53,0.32,0.95,0.69,1.26s0.86,0.47,1.44,0.47c0.7,0,1.3-0.24,1.8-0.73l1.57,0.74
				c-0.39,0.56-0.86,0.97-1.41,1.23s-1.2,0.4-1.95,0.4c-1.17,0-2.12-0.37-2.85-1.1s-1.1-1.66-1.1-2.77c0-1.13,0.37-2.08,1.1-2.83
				s1.65-1.12,2.75-1.12c1.17,0,2.12,0.38,2.86,1.12s1.1,1.74,1.1,2.97L181.37,66.66z M179.5,65.19c-0.12-0.41-0.37-0.75-0.73-1.01
				c-0.36-0.26-0.78-0.39-1.26-0.39c-0.52,0-0.98,0.15-1.37,0.44c-0.25,0.18-0.47,0.5-0.68,0.96H179.5z"/>
			<path class="st2" d="M182.88,62.4h1.87v0.76c0.42-0.36,0.81-0.6,1.15-0.74c0.34-0.14,0.7-0.21,1.05-0.21
				c0.74,0,1.36,0.26,1.88,0.77c0.43,0.44,0.65,1.08,0.65,1.94v4.92h-1.85v-3.26c0-0.89-0.04-1.48-0.12-1.77
				c-0.08-0.29-0.22-0.51-0.42-0.67c-0.2-0.15-0.44-0.23-0.73-0.23c-0.38,0-0.7,0.13-0.97,0.38c-0.27,0.25-0.46,0.6-0.56,1.05
				c-0.05,0.23-0.08,0.73-0.08,1.51v2.98h-1.87V62.4z"/>
			<path class="st2" d="M190.48,62.4h1.9l1.88,4.39l1.87-4.39h1.89l-3.16,7.44h-1.21L190.48,62.4z"/>
			<path class="st2" d="M199.85,59.34c0.33,0,0.61,0.12,0.84,0.36c0.23,0.24,0.35,0.52,0.35,0.86c0,0.33-0.12,0.62-0.35,0.85
				s-0.51,0.35-0.83,0.35c-0.33,0-0.62-0.12-0.85-0.36c-0.23-0.24-0.35-0.53-0.35-0.87c0-0.33,0.12-0.61,0.35-0.84
				S199.52,59.34,199.85,59.34z M198.92,62.4h1.87v7.44h-1.87V62.4z"/>
			<path class="st2" d="M202.04,62.4h1.6v0.94c0.17-0.37,0.4-0.65,0.69-0.84s0.6-0.29,0.94-0.29c0.24,0,0.49,0.06,0.76,0.19
				l-0.58,1.61c-0.22-0.11-0.4-0.16-0.54-0.16c-0.29,0-0.53,0.18-0.73,0.53c-0.2,0.36-0.3,1.05-0.3,2.09l0.01,0.36v3.01h-1.85V62.4z
				"/>
			<path class="st2" d="M210.45,62.21c0.7,0,1.36,0.18,1.98,0.53c0.62,0.35,1.1,0.83,1.45,1.43s0.52,1.25,0.52,1.95
				c0,0.7-0.17,1.36-0.52,1.97c-0.35,0.61-0.82,1.09-1.42,1.43s-1.26,0.52-1.99,0.52c-1.07,0-1.98-0.38-2.73-1.14
				c-0.75-0.76-1.13-1.68-1.13-2.77c0-1.16,0.43-2.13,1.28-2.91C208.62,62.55,209.48,62.21,210.45,62.21z M210.48,63.97
				c-0.58,0-1.06,0.2-1.45,0.6s-0.58,0.92-0.58,1.55c0,0.65,0.19,1.17,0.57,1.57c0.38,0.4,0.86,0.6,1.45,0.6
				c0.58,0,1.07-0.2,1.46-0.61s0.58-0.93,0.58-1.57s-0.19-1.16-0.57-1.56C211.56,64.17,211.07,63.97,210.48,63.97z"/>
			<path class="st2" d="M215.92,62.4h1.87v0.76c0.42-0.36,0.81-0.6,1.15-0.74c0.34-0.14,0.7-0.21,1.05-0.21
				c0.74,0,1.36,0.26,1.88,0.77c0.43,0.44,0.65,1.08,0.65,1.94v4.92h-1.85v-3.26c0-0.89-0.04-1.48-0.12-1.77
				c-0.08-0.29-0.22-0.51-0.42-0.67c-0.2-0.15-0.44-0.23-0.73-0.23c-0.38,0-0.7,0.13-0.97,0.38c-0.27,0.25-0.46,0.6-0.56,1.05
				c-0.05,0.23-0.08,0.73-0.08,1.51v2.98h-1.87V62.4z"/>
			<path class="st2" d="M224.3,62.4h1.87v0.85c0.32-0.35,0.67-0.61,1.06-0.79s0.82-0.26,1.28-0.26c0.46,0,0.88,0.11,1.26,0.34
				s0.67,0.56,0.9,1c0.3-0.44,0.66-0.77,1.09-1c0.43-0.23,0.9-0.34,1.41-0.34c0.53,0,0.99,0.12,1.4,0.37s0.69,0.57,0.87,0.96
				s0.26,1.04,0.26,1.93v4.36h-1.88v-3.77c0-0.84-0.1-1.41-0.31-1.71s-0.52-0.45-0.94-0.45c-0.32,0-0.61,0.09-0.86,0.27
				c-0.25,0.18-0.44,0.43-0.56,0.76s-0.18,0.84-0.18,1.55v3.36h-1.88v-3.6c0-0.67-0.05-1.15-0.15-1.45c-0.1-0.3-0.25-0.52-0.44-0.67
				c-0.2-0.15-0.43-0.22-0.71-0.22c-0.31,0-0.59,0.09-0.85,0.28c-0.25,0.18-0.44,0.44-0.57,0.78s-0.19,0.86-0.19,1.57v3.31h-1.87
				V62.4z"/>
			<path class="st2" d="M244.93,66.66h-6c0.09,0.53,0.32,0.95,0.69,1.26c0.38,0.31,0.86,0.47,1.44,0.47c0.7,0,1.3-0.24,1.8-0.73
				l1.57,0.74c-0.39,0.56-0.86,0.97-1.41,1.23s-1.2,0.4-1.95,0.4c-1.17,0-2.12-0.37-2.85-1.1s-1.1-1.66-1.1-2.77
				c0-1.13,0.37-2.08,1.1-2.83c0.73-0.75,1.65-1.12,2.75-1.12c1.17,0,2.12,0.38,2.86,1.12s1.1,1.74,1.1,2.97L244.93,66.66z
				 M243.06,65.19c-0.12-0.41-0.37-0.75-0.73-1.01c-0.36-0.26-0.78-0.39-1.26-0.39c-0.52,0-0.98,0.15-1.37,0.44
				c-0.25,0.18-0.47,0.5-0.68,0.96H243.06z"/>
			<path class="st2" d="M246.44,62.4h1.87v0.76c0.42-0.36,0.81-0.6,1.15-0.74c0.34-0.14,0.7-0.21,1.05-0.21
				c0.74,0,1.36,0.26,1.88,0.77c0.43,0.44,0.65,1.08,0.65,1.94v4.92h-1.85v-3.26c0-0.89-0.04-1.48-0.12-1.77
				c-0.08-0.29-0.22-0.51-0.42-0.67c-0.2-0.15-0.44-0.23-0.73-0.23c-0.38,0-0.7,0.13-0.97,0.38c-0.27,0.25-0.46,0.6-0.56,1.05
				c-0.05,0.23-0.08,0.73-0.08,1.51v2.98h-1.87V62.4z"/>
			<path class="st2" d="M255.07,59.66h1.87v2.74h1.11v1.61h-1.11v5.83h-1.87v-5.83h-0.96V62.4h0.96V59.66z"/>
			<path class="st2" d="M263.59,63.44l-1.16,1.16c-0.47-0.46-0.9-0.7-1.28-0.7c-0.21,0-0.37,0.04-0.49,0.13s-0.18,0.2-0.18,0.33
				c0,0.1,0.04,0.19,0.11,0.28c0.07,0.08,0.26,0.2,0.56,0.35l0.68,0.34c0.72,0.36,1.21,0.72,1.48,1.09s0.4,0.8,0.4,1.3
				c0,0.66-0.24,1.21-0.73,1.65c-0.48,0.44-1.14,0.66-1.95,0.66c-1.08,0-1.95-0.42-2.6-1.27l1.15-1.25
				c0.22,0.26,0.47,0.46,0.77,0.62c0.29,0.16,0.55,0.24,0.78,0.24c0.25,0,0.44-0.06,0.59-0.18s0.23-0.26,0.23-0.41
				c0-0.29-0.27-0.57-0.81-0.84l-0.63-0.31c-1.2-0.61-1.8-1.36-1.8-2.28c0-0.59,0.23-1.09,0.68-1.51c0.45-0.42,1.03-0.63,1.74-0.63
				c0.48,0,0.94,0.11,1.36,0.32C262.93,62.74,263.3,63.04,263.59,63.44z"/>
		</g>
		<line class="st1" x1="179.75" y1="295.62" x2="179.75" y2="-64.38"/>
		<line class="st1" x1="348.42" y1="75.62" x2="-11.58" y2="75.62"/>
		<g>
			<path class="st3" d="M14.93,28.91h5.2v2.38c0.89-0.98,1.88-1.71,2.96-2.19c1.09-0.48,2.27-0.72,3.55-0.72
				c1.3,0,2.46,0.32,3.51,0.95c1.04,0.63,1.88,1.56,2.52,2.78c0.83-1.22,1.84-2.15,3.04-2.78s2.51-0.95,3.94-0.95
				c1.47,0,2.77,0.34,3.89,1.03s1.92,1.58,2.41,2.69s0.73,2.9,0.73,5.39v12.15h-5.24V39.11c0-2.35-0.29-3.94-0.88-4.77
				c-0.58-0.83-1.46-1.25-2.63-1.25c-0.89,0-1.69,0.25-2.39,0.76c-0.71,0.51-1.23,1.21-1.57,2.1c-0.34,0.89-0.51,2.33-0.51,4.31
				v9.35h-5.24V39.59c0-1.85-0.14-3.2-0.41-4.03c-0.27-0.83-0.68-1.45-1.23-1.86s-1.21-0.61-1.99-0.61c-0.87,0-1.65,0.26-2.36,0.77
				c-0.71,0.51-1.23,1.23-1.58,2.16s-0.52,2.39-0.52,4.38v9.22h-5.2V28.91z"/>
			<path class="st3" d="M73.67,40.77h-16.7c0.24,1.47,0.89,2.64,1.93,3.51c1.05,0.87,2.38,1.3,4.01,1.3c1.94,0,3.61-0.68,5.01-2.04
				l4.38,2.06c-1.09,1.55-2.4,2.69-3.92,3.44c-1.52,0.74-3.33,1.11-5.43,1.11c-3.25,0-5.9-1.02-7.94-3.08s-3.07-4.62-3.07-7.7
				c0-3.16,1.02-5.79,3.06-7.87c2.04-2.09,4.59-3.13,7.67-3.13c3.26,0,5.92,1.04,7.96,3.13s3.07,4.85,3.07,8.27L73.67,40.77z
				 M68.47,36.68c-0.34-1.16-1.02-2.09-2.03-2.82c-1.01-0.72-2.18-1.09-3.52-1.09c-1.45,0-2.72,0.41-3.81,1.22
				c-0.69,0.51-1.32,1.4-1.91,2.69H68.47z"/>
			<path class="st3" d="M78.59,20.91h5.2v28.72h-5.2V20.91z"/>
			<path class="st3" d="M105.09,28.91h5.2v20.72h-5.2v-2.19c-1.01,0.96-2.03,1.66-3.05,2.09c-1.02,0.42-2.13,0.64-3.32,0.64
				c-2.68,0-4.99-1.04-6.94-3.11c-1.95-2.08-2.93-4.66-2.93-7.74c0-3.2,0.94-5.82,2.83-7.86c1.89-2.04,4.18-3.07,6.89-3.07
				c1.24,0,2.41,0.23,3.5,0.7c1.09,0.47,2.1,1.17,3.02,2.11V28.91z M99.62,33.17c-1.61,0-2.94,0.57-4,1.7
				c-1.06,1.14-1.59,2.59-1.59,4.37c0,1.79,0.54,3.26,1.62,4.42s2.41,1.73,4,1.73c1.63,0,2.99-0.57,4.06-1.7s1.61-2.62,1.61-4.47
				c0-1.8-0.54-3.26-1.61-4.38S101.27,33.17,99.62,33.17z"/>
			<path class="st3" d="M116.83,28.91h5.2v2.12c1.18-0.99,2.25-1.68,3.2-2.07c0.96-0.39,1.94-0.58,2.94-0.58
				c2.05,0,3.8,0.72,5.23,2.15c1.2,1.22,1.81,3.02,1.81,5.41v13.69h-5.14v-9.07c0-2.47-0.11-4.11-0.33-4.93
				c-0.22-0.81-0.61-1.43-1.16-1.85c-0.55-0.42-1.23-0.64-2.04-0.64c-1.05,0-1.95,0.35-2.71,1.06c-0.75,0.7-1.28,1.68-1.57,2.92
				c-0.15,0.65-0.23,2.05-0.23,4.2v8.31h-5.2V28.91z"/>
			<path class="st3" d="M156.81,20.91h5.2v28.72h-5.2v-2.19c-1.01,0.96-2.03,1.66-3.05,2.09c-1.02,0.42-2.13,0.64-3.32,0.64
				c-2.68,0-4.99-1.04-6.94-3.11c-1.95-2.08-2.93-4.66-2.93-7.74c0-3.2,0.94-5.82,2.83-7.86c1.89-2.04,4.18-3.07,6.89-3.07
				c1.24,0,2.41,0.23,3.5,0.7c1.09,0.47,2.1,1.17,3.03,2.11V20.91z M151.35,33.17c-1.61,0-2.94,0.57-4,1.7
				c-1.06,1.14-1.59,2.59-1.59,4.37c0,1.79,0.54,3.26,1.62,4.42c1.08,1.16,2.41,1.73,4,1.73c1.63,0,2.99-0.57,4.06-1.7
				c1.08-1.14,1.61-2.62,1.61-4.47c0-1.8-0.54-3.26-1.61-4.38C154.35,33.73,152.99,33.17,151.35,33.17z"/>
			<path class="st3" d="M167.34,28.91h4.46v2.61c0.48-1.03,1.12-1.81,1.92-2.34c0.8-0.53,1.68-0.8,2.63-0.8
				c0.67,0,1.38,0.18,2.11,0.53l-1.62,4.48c-0.61-0.3-1.11-0.46-1.5-0.46c-0.8,0-1.48,0.5-2.03,1.49c-0.55,0.99-0.83,2.93-0.83,5.83
				l0.02,1.01v8.38h-5.16V28.91z"/>
			<path class="st3" d="M184.34,20.38c0.91,0,1.69,0.33,2.34,0.99s0.98,1.46,0.98,2.4c0,0.93-0.32,1.72-0.97,2.37
				s-1.42,0.98-2.32,0.98c-0.92,0-1.71-0.33-2.36-1c-0.65-0.67-0.98-1.48-0.98-2.43c0-0.91,0.32-1.69,0.97-2.34
				S183.43,20.38,184.34,20.38z M181.74,28.91h5.2v20.72h-5.2V28.91z"/>
			<path class="st3" d="M204.58,20.91h5.2v28.72h-5.2V20.91z"/>
			<path class="st3" d="M231.08,28.91h5.2v20.72h-5.2v-2.19c-1.01,0.96-2.03,1.66-3.05,2.09c-1.02,0.42-2.13,0.64-3.32,0.64
				c-2.68,0-4.99-1.04-6.94-3.11c-1.95-2.08-2.93-4.66-2.93-7.74c0-3.2,0.94-5.82,2.83-7.86s4.18-3.07,6.89-3.07
				c1.24,0,2.41,0.23,3.5,0.7c1.09,0.47,2.1,1.17,3.03,2.11V28.91z M225.61,33.17c-1.61,0-2.94,0.57-4,1.7
				c-1.06,1.14-1.59,2.59-1.59,4.37c0,1.79,0.54,3.26,1.62,4.42c1.08,1.16,2.41,1.73,4,1.73c1.63,0,2.99-0.57,4.06-1.7
				c1.08-1.14,1.61-2.62,1.61-4.47c0-1.8-0.54-3.26-1.61-4.38C228.62,33.73,227.26,33.17,225.61,33.17z"/>
			<path class="st3" d="M247.98,20.91v10.28c0.94-0.94,1.95-1.64,3.05-2.11c1.09-0.47,2.26-0.7,3.5-0.7c2.7,0,5,1.02,6.89,3.07
				s2.84,4.67,2.84,7.86c0,3.08-0.98,5.67-2.93,7.74c-1.96,2.08-4.27,3.11-6.95,3.11c-1.19,0-2.3-0.21-3.33-0.64
				c-1.03-0.43-2.05-1.12-3.07-2.09v2.19h-5.16V20.91H247.98z M253.45,33.17c-1.64,0-3,0.56-4.08,1.68s-1.62,2.58-1.62,4.38
				c0,1.84,0.54,3.33,1.62,4.47s2.44,1.7,4.08,1.7c1.59,0,2.92-0.58,4.01-1.73c1.08-1.16,1.63-2.63,1.63-4.42
				c0-1.78-0.53-3.23-1.6-4.37C256.42,33.74,255.07,33.17,253.45,33.17z"/>
		</g>
	</g>
</g>
<g id="_x22_crop_physio..._x22_">
</g>
<g id="graphic">
	<rect x="180" y="144.99" class="st1" width="360" height="144"/>
	<g>
		<line class="st4" x1="279.98" y1="52.03" x2="351.98" y2="52.03"/>
		<path class="st5" d="M342.94,45.5c-10.71-11.11,0-16.22,0-16.22V24.1c0-5.1-4.14-9.24-9.24-9.24c-5.1,0-9.24,4.14-9.24,9.24v20.41
			v7.51"/>
		<path class="st5" d="M342.49,29.13c0,0,10.71,5.11,0,16.22"/>
		<line class="st5" x1="316.92" y1="37.25" x2="324.46" y2="44.51"/>
		<line class="st5" x1="324.46" y1="34.5" x2="331.32" y2="27.61"/>
		<polyline class="st5" points="287.07,52.03 293.33,57.24 301.47,57.24 303.98,52.03 311.91,52.03 311.91,57.24 305.65,60.37 
			302.1,61.42 301.68,66.43 298.61,68.93 291.56,66.84 292.02,64.37 293.33,57.24 		"/>
		<line class="st5" x1="292.02" y1="64.37" x2="279.98" y2="67.05"/>
		<line class="st5" x1="301.47" y1="57.24" x2="305.65" y2="60.37"/>
		<polyline class="st5" points="311.91,57.24 318.38,60.37 324.46,58.81 330.48,52.03 338.62,60.37 344.05,58.81 345.72,52.03 		"/>
		<line class="st5" x1="344.05" y1="58.81" x2="351.98" y2="68.3"/>
		<polyline class="st5" points="338.62,60.37 333.7,61.42 326.72,71.02 321.72,72.27 306.9,71.23 301.68,66.43 		"/>
		<line class="st5" x1="324.46" y1="58.81" x2="331.32" y2="65.71"/>
		<polyline class="st5" points="328.81,68.15 333.7,69.77 337.37,68.3 344.05,77.49 348.01,76.44 		"/>
		<line class="st5" x1="344.05" y1="77.49" x2="338.62" y2="83.96"/>
		<polyline class="st5" points="333.7,69.77 333.7,75.61 328.81,80.72 333.7,85 		"/>
		<path class="st5" d="M328.81,80.72"/>
		<polyline class="st5" points="305.65,80.72 298.61,78.95 294.41,77.78 287.91,75.97 291.56,66.84 		"/>
		<line class="st5" x1="294.41" y1="77.78" x2="289.01" y2="83.18"/>
		<polyline class="st5" points="318.38,60.37 316.92,63.56 320.69,66.84 320.69,72.27 320.69,75.82 316.92,80.72 311.91,80.72 
			305.65,80.72 303.56,74.77 306.9,71.23 		"/>
		<line class="st5" x1="328.81" y1="80.72" x2="318.67" y2="78.44"/>
		<g>
			<g>
				<path class="st6" d="M283.73,30.04l5.4-3.06c0.33-0.19,0.76-0.07,0.94,0.26v0c0.19,0.33,0.07,0.76-0.26,0.94l-5.4,3.06
					c-0.33,0.19-0.76,0.07-0.94-0.26v0C283.28,30.65,283.4,30.23,283.73,30.04z"/>
			</g>
			<g>
				<path class="st6" d="M281.91,21.58l6.21,0.05c0.38,0,0.69,0.32,0.69,0.7v0c0,0.38-0.32,0.69-0.7,0.69l-6.21-0.05
					c-0.38,0-0.69-0.32-0.69-0.7v0C281.21,21.88,281.53,21.58,281.91,21.58z"/>
			</g>
			<g>
				<path class="st6" d="M284.56,13.34l5.35,3.15c0.33,0.19,0.44,0.62,0.25,0.95l0,0c-0.19,0.33-0.62,0.44-0.95,0.25l-5.35-3.15
					c-0.33-0.19-0.44-0.62-0.25-0.95v0C283.81,13.26,284.23,13.15,284.56,13.34z"/>
			</g>
			<g>
				<path class="st6" d="M290.98,7.53l3.06,5.4c0.19,0.33,0.07,0.76-0.26,0.94l0,0c-0.33,0.19-0.76,0.07-0.94-0.26l-3.06-5.4
					c-0.19-0.33-0.07-0.76,0.26-0.94l0,0C290.36,7.08,290.79,7.2,290.98,7.53z"/>
			</g>
			<g>
				<path class="st6" d="M299.44,5.71l-0.05,6.21c0,0.38-0.32,0.69-0.7,0.69l0,0c-0.38,0-0.69-0.32-0.69-0.7l0.05-6.21
					c0-0.38,0.32-0.69,0.7-0.69l0,0C299.13,5.01,299.44,5.33,299.44,5.71z"/>
			</g>
			<g>
				<path class="st6" d="M307.67,8.36l-3.15,5.35c-0.19,0.33-0.62,0.44-0.95,0.25v0c-0.33-0.19-0.44-0.62-0.25-0.95l3.15-5.35
					c0.19-0.33,0.62-0.44,0.95-0.25v0C307.76,7.6,307.87,8.03,307.67,8.36z"/>
			</g>
			<g>
				<path class="st6" d="M313.48,14.77l-5.4,3.06c-0.33,0.19-0.76,0.07-0.94-0.26v0c-0.19-0.33-0.07-0.76,0.26-0.94l5.4-3.06
					c0.33-0.19,0.76-0.07,0.94,0.26v0C313.93,14.16,313.82,14.59,313.48,14.77z"/>
			</g>
			<g>
				<path class="st6" d="M315.31,23.23l-6.21-0.05c-0.38,0-0.69-0.32-0.69-0.7v0c0-0.38,0.32-0.69,0.7-0.69l6.21,0.05
					c0.38,0,0.69,0.32,0.69,0.7v0C316,22.93,315.69,23.24,315.31,23.23z"/>
			</g>
			<g>
				<path class="st6" d="M312.66,31.47l-5.35-3.15c-0.33-0.19-0.44-0.62-0.25-0.95l0,0c0.19-0.33,0.62-0.44,0.95-0.25l5.35,3.15
					c0.33,0.19,0.44,0.62,0.25,0.95l0,0C313.41,31.56,312.99,31.67,312.66,31.47z"/>
			</g>
			<g>
				<path class="st6" d="M306.24,37.28l-3.06-5.4c-0.19-0.33-0.07-0.76,0.26-0.94v0c0.33-0.19,0.76-0.07,0.94,0.26l3.06,5.4
					c0.19,0.33,0.07,0.76-0.26,0.94h0C306.85,37.73,306.43,37.62,306.24,37.28z"/>
			</g>
			<g>
				<path class="st6" d="M297.78,39.11l0.05-6.21c0-0.38,0.32-0.69,0.7-0.69l0,0c0.38,0,0.69,0.32,0.69,0.7l-0.05,6.21
					c0,0.38-0.32,0.69-0.7,0.69l0,0C298.09,39.8,297.78,39.49,297.78,39.11z"/>
			</g>
			<g>
				<path class="st6" d="M289.54,36.46l3.15-5.35c0.19-0.33,0.62-0.44,0.95-0.25l0,0c0.33,0.19,0.44,0.62,0.25,0.95l-3.15,5.35
					c-0.19,0.33-0.62,0.44-0.95,0.25l0,0C289.46,37.21,289.35,36.79,289.54,36.46z"/>
			</g>
		</g>
		<g>
			<circle class="st4" cx="298.61" cy="22.41" r="7.04"/>
		</g>
	</g>
	<g>
	</g>
	<g>
	</g>
	<g>
	</g>
	<g>
	</g>
	<g>
	</g>
	<g>
	</g>
</g>
</svg>
