<?xml version="1.0" encoding="utf-8"?>
<!-- Generator: Adobe Illustrator 27.7.0, SVG Export Plug-In . SVG Version: 6.00 Build 0)  -->
<svg version="1.1" xmlns="http://www.w3.org/2000/svg" xmlns:xlink="http://www.w3.org/1999/xlink" x="0px" y="0px"
	 viewBox="0 0 360 360" style="enable-background:new 0 0 360 360;" xml:space="preserve">
<style type="text/css">
	.st0{fill:#791232;}
	.st1{fill:none;}
	.st2{display:none;}
	.st3{fill:#FFFFFF;}
</style>
<g id="circle_background">
	<circle class="st0" cx="180" cy="180" r="180"/>
</g>
<g id="paths">
</g>
<g id="_x22_melandri_x22_">
	<line class="st1" x1="54" y1="237.4" x2="54" y2="-122.6"/>
	<line class="st1" x1="258.34" y1="156.28" x2="258.34" y2="296.85"/>
</g>
<g id="_x22_crop_physio..._x22_" class="st2">
</g>
<g id="_x22_lab_x22_">
	<line class="st1" x1="403.84" y1="324.12" x2="43.84" y2="324.12"/>
	<g>
		<path class="st3" d="M43.14,123.34h8.26v3.78c1.41-1.55,2.98-2.71,4.71-3.48c1.73-0.77,3.61-1.15,5.65-1.15
			c2.06,0,3.92,0.5,5.57,1.51c1.66,1.01,2.99,2.48,4,4.42c1.31-1.94,2.92-3.41,4.83-4.42c1.91-1.01,3.99-1.51,6.26-1.51
			c2.34,0,4.4,0.54,6.18,1.63s3.05,2.51,3.83,4.27s1.17,4.61,1.17,8.57v19.31h-8.33v-16.71c0-3.73-0.46-6.26-1.39-7.58
			c-0.93-1.32-2.32-1.98-4.18-1.98c-1.41,0-2.68,0.4-3.8,1.21c-1.12,0.81-1.95,1.92-2.5,3.35s-0.82,3.71-0.82,6.86v14.86h-8.33
			v-15.95c0-2.95-0.22-5.08-0.65-6.4c-0.44-1.32-1.09-2.31-1.96-2.95c-0.87-0.65-1.92-0.97-3.16-0.97c-1.38,0-2.62,0.41-3.75,1.23
			c-1.12,0.82-1.96,1.96-2.52,3.44c-0.56,1.47-0.83,3.79-0.83,6.96v14.65h-8.26V123.34z"/>
		<path class="st3" d="M136.39,142.2h-26.55c0.38,2.34,1.41,4.2,3.07,5.59c1.67,1.38,3.79,2.07,6.37,2.07
			c3.09,0,5.74-1.08,7.96-3.24l6.96,3.27c-1.74,2.46-3.81,4.28-6.24,5.46s-5.3,1.77-8.63,1.77c-5.17,0-9.38-1.63-12.62-4.89
			c-3.25-3.26-4.87-7.34-4.87-12.25c0-5.03,1.62-9.2,4.86-12.52c3.24-3.32,7.3-4.98,12.19-4.98c5.19,0,9.4,1.66,12.65,4.98
			c3.25,3.32,4.87,7.7,4.87,13.15L136.39,142.2z M128.13,135.69c-0.55-1.84-1.62-3.33-3.23-4.48c-1.61-1.15-3.47-1.73-5.59-1.73
			c-2.3,0-4.33,0.65-6.06,1.94c-1.09,0.81-2.1,2.23-3.03,4.27H128.13z"/>
		<path class="st3" d="M144.1,110.63h8.26v45.65h-8.26V110.63z"/>
		<path class="st3" d="M186.1,123.34h8.27v32.94h-8.27v-3.48c-1.61,1.53-3.23,2.64-4.85,3.31c-1.62,0.68-3.38,1.01-5.27,1.01
			c-4.25,0-7.93-1.65-11.04-4.95c-3.1-3.3-4.66-7.4-4.66-12.31c0-5.09,1.5-9.25,4.51-12.5c3-3.25,6.65-4.87,10.95-4.87
			c1.97,0,3.83,0.37,5.56,1.12c1.73,0.75,3.34,1.87,4.81,3.36V123.34z M177.41,130.12c-2.55,0-4.68,0.9-6.37,2.71
			c-1.69,1.81-2.53,4.12-2.53,6.95c0,2.85,0.86,5.19,2.58,7.02c1.72,1.84,3.84,2.75,6.35,2.75c2.6,0,4.75-0.9,6.46-2.71
			c1.71-1.81,2.56-4.17,2.56-7.1c0-2.87-0.86-5.19-2.56-6.96C182.19,131.01,180.03,130.12,177.41,130.12z"/>
		<path class="st3" d="M204.64,123.34h8.26v3.38c1.87-1.58,3.57-2.68,5.09-3.3c1.52-0.62,3.08-0.93,4.67-0.93
			c3.27,0,6.04,1.14,8.31,3.42c1.92,1.94,2.87,4.8,2.87,8.6v21.77h-8.17v-14.42c0-3.93-0.18-6.54-0.53-7.83
			c-0.35-1.29-0.97-2.27-1.84-2.95s-1.96-1.01-3.25-1.01c-1.67,0-3.11,0.56-4.3,1.68c-1.2,1.12-2.03,2.67-2.49,4.64
			c-0.24,1.03-0.36,3.26-0.36,6.68v13.21h-8.26V123.34z"/>
		<path class="st3" d="M268.08,110.63h8.26v45.65h-8.26v-3.48c-1.61,1.53-3.23,2.64-4.85,3.31s-3.38,1.01-5.28,1.01
			c-4.25,0-7.93-1.65-11.04-4.95s-4.66-7.4-4.66-12.31c0-5.09,1.5-9.25,4.51-12.5c3-3.25,6.65-4.87,10.95-4.87
			c1.97,0,3.83,0.37,5.56,1.12c1.73,0.75,3.34,1.87,4.81,3.36V110.63z M259.39,130.12c-2.55,0-4.68,0.9-6.37,2.71
			c-1.69,1.81-2.53,4.12-2.53,6.95c0,2.85,0.86,5.19,2.58,7.02c1.72,1.84,3.84,2.75,6.35,2.75c2.59,0,4.75-0.9,6.46-2.71
			c1.71-1.81,2.56-4.17,2.56-7.1c0-2.87-0.86-5.19-2.56-6.96C264.17,131.01,262.01,130.12,259.39,130.12z"/>
		<path class="st3" d="M284.68,123.34h7.08v4.15c0.77-1.63,1.79-2.88,3.06-3.72s2.66-1.27,4.18-1.27c1.07,0,2.19,0.28,3.36,0.85
			l-2.57,7.11c-0.97-0.48-1.77-0.73-2.39-0.73c-1.27,0-2.35,0.79-3.22,2.36c-0.88,1.57-1.32,4.66-1.32,9.26l0.03,1.6v13.32h-8.2
			V123.34z"/>
		<path class="st3" d="M311.6,109.78c1.45,0,2.69,0.52,3.73,1.57c1.04,1.05,1.55,2.32,1.55,3.81c0,1.47-0.51,2.73-1.54,3.77
			c-1.03,1.04-2.25,1.56-3.68,1.56c-1.47,0-2.72-0.53-3.76-1.59c-1.04-1.06-1.55-2.35-1.55-3.86c0-1.45,0.51-2.69,1.54-3.72
			S310.15,109.78,311.6,109.78z M307.46,123.34h8.26v32.94h-8.26V123.34z"/>
	</g>
	<g>
		<path class="st3" d="M42.29,206.63h8.26v45.65h-8.26V206.63z"/>
		<path class="st3" d="M84.42,219.35h8.26v32.94h-8.26v-3.48c-1.61,1.53-3.23,2.64-4.85,3.32c-1.62,0.68-3.38,1.01-5.28,1.01
			c-4.25,0-7.93-1.65-11.04-4.95c-3.1-3.3-4.66-7.4-4.66-12.31c0-5.09,1.5-9.25,4.51-12.5c3-3.25,6.65-4.87,10.95-4.87
			c1.98,0,3.83,0.37,5.56,1.12c1.73,0.75,3.34,1.87,4.81,3.36V219.35z M75.73,226.13c-2.55,0-4.68,0.9-6.37,2.71
			c-1.69,1.81-2.53,4.12-2.53,6.95c0,2.85,0.86,5.19,2.58,7.02c1.72,1.84,3.84,2.75,6.35,2.75c2.6,0,4.75-0.9,6.46-2.71
			c1.71-1.81,2.56-4.17,2.56-7.1c0-2.87-0.86-5.19-2.56-6.96C80.5,227.02,78.34,226.13,75.73,226.13z"/>
		<path class="st3" d="M111.29,206.63v16.35c1.49-1.49,3.11-2.61,4.84-3.36c1.74-0.75,3.59-1.12,5.57-1.12
			c4.3,0,7.95,1.62,10.96,4.87c3.01,3.25,4.51,7.42,4.51,12.5c0,4.9-1.55,9.01-4.66,12.31c-3.11,3.3-6.79,4.95-11.05,4.95
			c-1.9,0-3.66-0.34-5.3-1.01c-1.63-0.68-3.26-1.78-4.87-3.32v3.48h-8.2v-45.65H111.29z M119.97,226.13c-2.6,0-4.76,0.89-6.48,2.66
			c-1.72,1.78-2.57,4.1-2.57,6.96c0,2.93,0.86,5.29,2.57,7.1c1.72,1.81,3.88,2.71,6.48,2.71c2.52,0,4.65-0.92,6.37-2.75
			c1.73-1.84,2.59-4.18,2.59-7.02c0-2.83-0.85-5.14-2.54-6.95C124.7,227.03,122.56,226.13,119.97,226.13z"/>
	</g>
</g>
<g id="graphic">
	<g>
	</g>
	<g>
	</g>
	<g>
	</g>
	<g>
	</g>
	<g>
	</g>
	<g>
	</g>
</g>
</svg>
